<?xml version="1.0" encoding="utf-8"?>
<!-- Generator: Adobe Illustrator 24.3.0, SVG Export Plug-In . SVG Version: 6.00 Build 0)  -->
<svg version="1.1" id="Calque_1" xmlns="http://www.w3.org/2000/svg" xmlns:xlink="http://www.w3.org/1999/xlink" x="0px" y="0px"
	 viewBox="0 0 841.9 595.3" style="enable-background:new 0 0 841.9 595.3;" xml:space="preserve">
<style type="text/css">
	.st0{fill:#FFFFFF;}
	.st1{fill:none;}
	.st2{enable-background:new    ;}
	.st3{fill:#FFC951;}
	.st4{font-family:'GalanoClassic-MediumItalic';}
	.st5{font-size:171.8888px;}
	.st6{letter-spacing:-5;}
	.st7{fill:#5E6363;}
	.st8{fill:#784343;}
	.st9{fill:#DB4040;}
	.st10{fill:#797474;}
	.st11{fill:none;stroke:#FFC951;stroke-width:4;stroke-miterlimit:10;}
</style>
<ellipse transform="matrix(0.9708 -0.2398 0.2398 0.9708 -61.313 38.992)" class="st0" cx="129.6" cy="271.4" rx="10.8" ry="8.4"/>
<ellipse class="st0" cx="76" cy="261.5" rx="8.4" ry="10.8"/>
<ellipse class="st0" cx="175.2" cy="232.6" rx="8.4" ry="10.8"/>
<ellipse transform="matrix(0.9708 -0.2398 0.2398 0.9708 -69.1587 42.1384)" class="st0" cx="138.6" cy="305.3" rx="35.5" ry="13.3"/>
<rect x="242.2" y="145.9" class="st1" width="760.4" height="331.8"/>
<text transform="matrix(1 0 0 1 242.8599 320.2077)" class="st2"><tspan x="0" y="0" class="st3 st4 st5 st6">foo</tspan><tspan x="259.7" y="0" class="st0 st4 st5 st6">pgp</tspan></text>
<path d="M84.4,205.5c-1.6,1.8-3.1,3.3-4.5,4.9c-9.3,10.5-17.4,21.9-23.6,34.6c-3.5,7.2-6.3,14.7-7.9,22.6c-1.4,7-1.9,14.1-1,21.2
	c0.4,3,0.6,6.1,0.3,9.1c-0.1,1.6-0.4,3.1-1,4.6c-1.3,3-3.5,4.1-6.7,3.4c-1.8-0.4-3.3-1.2-4.9-2.1c-3.2-2-6-4.5-8.6-7.3
	c-8-8.6-14.3-18.3-18.4-29.4c-1.6-4.4-2.7-8.8-2.6-13.5c0-3.6,0.9-7,3.1-10c0.4-0.5,0.6-1.1,0.9-1.6c2-3.5,4.8-6.3,7.8-8.9
	c5-4.3,10.7-7.7,16.6-10.7c9.8-5,20.1-8.8,30.7-11.8c6.3-1.8,12.6-3.3,18.9-5C83.8,205.5,83.9,205.5,84.4,205.5z"/>
<path d="M140.4,190.9c1-0.3,2-0.7,3-1c9.9-3,20-5.6,30.2-7.4c9.4-1.7,18.9-2.7,28.5-2.3c5.5,0.2,10.9,0.9,16.2,2.7
	c2,0.7,4,1.6,5.8,2.7c0.2,0.2,0.5,0.3,0.8,0.4c3,1.2,5.3,3.4,7,6c2.3,3.4,3.6,7.1,4.5,11.1c1.4,5.7,1.8,11.4,1.8,17.2
	c0,8.4-1,16.7-3.5,24.7c-0.7,2.3-1.7,4.5-2.8,6.6c-0.7,1.4-1.7,2.7-2.7,3.8c-2.4,2.5-5.3,2.6-7.9,0.4c-1.1-1-2.1-2.1-3-3.3
	c-1.6-2.2-2.8-4.6-3.9-7.1c-4-9.7-10.2-17.8-17.9-24.8c-7.5-6.8-15.8-12.3-24.8-17c-9.8-5.1-19.9-9.2-30.5-12.3
	c-0.3-0.1-0.5-0.2-0.8-0.3C140.4,191,140.4,190.9,140.4,190.9z"/>
<path d="M82.9,284.5c-11.5-0.1-20.5-9.3-20.3-20.8c0.2-11.4,9.6-20.3,20.9-20c10.8,0.3,19.9,9,19.9,20.5
	C103.4,275.9,93.9,284.5,82.9,284.5z M74.5,264.2c2.9,0,5.4-2.4,5.4-5.4c0-3-2.4-5.5-5.4-5.5c-2.9,0-5.4,2.4-5.4,5.4
	C69.1,261.8,71.5,264.2,74.5,264.2z"/>
<path d="M150.2,240.3c0-10.2,8-19.9,19.5-20.3c11-0.3,20.5,8,21.1,19.2c0.6,11.8-8.4,20.9-19.2,21.5c-5.8,0.3-10.9-1.7-15-5.7
	C152.3,251.1,149.9,246.2,150.2,240.3z M175.2,237c3,0,5.4-2.4,5.4-5.3c0-3-2.4-5.4-5.4-5.5c-3,0-5.5,2.4-5.4,5.4
	C169.8,234.6,172.2,237,175.2,237z"/>
<path class="st7" d="M407.8,431.9c0.1,0.1,0.3,0.3,0.4,0.4c-0.2,0.1-0.4,0-0.5-0.1C407.6,432,407.5,431.9,407.8,431.9z"/>
<path class="st8" d="M354.6,445.9c-0.2,0-0.4,0-0.6,0c0.2-0.2,0.4-0.3,0.6-0.2C354.8,445.7,354.7,445.9,354.6,445.9z"/>
<polygon class="st9" points="332.9,474.4 332.8,474.4 332.9,474.4 332.9,474.4 "/>
<path class="st10" d="M332.7,474.7c0,0.1-0.1,0.2-0.2,0.3C332.5,474.8,332.6,474.7,332.7,474.7z"/>
<path d="M192.6,294.2c-0.7-3.3-1.6-6.5-2.5-9.8c-0.6-2.3-1.6-4.5-3-6.3c-1.9-2.5-4.2-4.4-6.6-6.1c-1.1-0.8-2.2-1.5-3.3-2.2
	c-1-0.6-2-1.2-3-1.8c-0.3-0.2-0.6-0.2-0.9-0.4c-2.1-1.2-4.3-2.1-6.5-2.9c-3.9-1.5-8-2.4-12.1-3.1c-1.2-0.2-2.3-0.4-3.5-0.4
	c-2.1-0.1-4.2-0.1-6.3-0.1c-0.5,0-0.8-0.1-1.2-0.5c-1.8-1.7-3.8-3-6.2-2.9c-0.3,0-0.6-0.1-0.9-0.1c-3-0.3-5.9-0.2-8.8,0.7
	c-3,0.9-5.8,2.5-8.3,4.5c-0.6,0.5-1.3,1-1.9,1.5c-1.7,1.2-2.7,2.8-3.1,5c-0.1,0.8-0.4,1.1-1,1.5c-3.2,1.9-6.2,4.2-9.1,6.7
	c-4.4,3.9-8.2,8.4-11.6,13.4c-0.7,1.1-1.4,2.1-2.1,3.2c-0.5,0.9-1,1.8-1.5,2.7c-0.2,0.4-0.4,0.9-0.6,1.4c-0.9,2-1.9,4-2.7,6.1
	c-1.8,4.4-2,9-0.9,13.7c0.9,4.1,1.8,8.2,3,12.1c1,3.3,2.1,6.5,3.6,9.5c1,2,2.2,3.9,3.8,5.4c3,2.9,6.5,3.6,10.3,2.9
	c2.1-0.4,4.1-0.9,6.2-1.3c1.3-0.2,2.6-0.3,3.9-0.2c1.7,0.1,3.3,0.3,4.9,0.5c1.9-0.2,3.7-0.3,5.6-0.5c3.8-0.5,7.5-1.5,11.1-2.7
	c5.6-1.9,11.2-3.7,16.8-5.2c4.3-1.1,8.5-2.4,12.5-4.2c3.3-1.4,6.4-3.3,9.2-5.7c1-0.8,2-1.6,3.1-2.1c2.2-0.9,4.4-1.9,6.6-2.8
	c2.2-0.9,4.2-2.2,5.8-4.1c2.2-2.7,3-6,3.2-9.5C194.6,304.7,193.7,299.4,192.6,294.2z M136,263.6l-5.2,8.4l-8.6-4.8L136,263.6z
	 M157.4,299.6c-0.2,0.2-0.5,0.4-0.7,0.6c-1,0.5-2,1.1-3,1.6c-6,2.7-12.1,4.8-18.4,6.5c-3.2,0.9-6.3,1.7-9.5,2.3
	c-2,0.4-3.8,0.4-5.8,0.7c-0.4,0-1-0.3-1.1-1.1c0-0.4,0.1-1.2,1-1.3c0.9-0.1,1.3-0.1,2.3-0.2c0.2-3.1,0.1-6.1,0.4-9.1
	c1.3,2.7,2.7,5.4,4,8.2c7.9-1.7,15.6-4,23.1-7c0-3.2,0-6.3,0-9.4c0,0,0.1-0.1,0.1-0.1c1.4,2.5,2.7,5.1,4.1,7.7
	c0.9-0.5,1.3-0.8,2.1-1.2c0.2-0.1,0.8-0.3,1.1,0.2c0.1,0.1,0.3,0.3,0.4,0.7C157.7,298.8,157.6,299.5,157.4,299.6z"/>
<g>
	<ellipse class="st11" cx="168.5" cy="239.7" rx="31.9" ry="30.4"/>
	<ellipse class="st11" cx="83.4" cy="263" rx="31.9" ry="30.4"/>
	<path class="st11" d="M114.7,257.4c0,0,7-11.8,23.9-7.1"/>
</g>
</svg>
