<?xml version="1.0" encoding="UTF-8" standalone="no"?>
<svg
   xmlns:dc="http://purl.org/dc/elements/1.1/"
   xmlns:cc="http://creativecommons.org/ns#"
   xmlns:rdf="http://www.w3.org/1999/02/22-rdf-syntax-ns#"
   xmlns:svg="http://www.w3.org/2000/svg"
   xmlns="http://www.w3.org/2000/svg"
   xmlns:sodipodi="http://sodipodi.sourceforge.net/DTD/sodipodi-0.dtd"
   xmlns:inkscape="http://www.inkscape.org/namespaces/inkscape"
   version="1.1"
   id="Calque_1"
   x="0px"
   y="0px"
   viewBox="0 0 841.9 595.3"
   style="enable-background:new 0 0 841.9 595.3;"
   xml:space="preserve"
   sodipodi:docname="foopgpg_pug_laurent_0.svg"
   inkscape:version="1.0.1 (3bc2e813f5, 2020-09-07)"><metadata
   id="metadata51"><rdf:RDF><cc:Work
       rdf:about=""><dc:format>image/svg+xml</dc:format><dc:type
         rdf:resource="http://purl.org/dc/dcmitype/StillImage" /><dc:title /></cc:Work></rdf:RDF></metadata><defs
   id="defs49" /><sodipodi:namedview
   pagecolor="#ffffff"
   bordercolor="#666666"
   borderopacity="1"
   objecttolerance="10"
   gridtolerance="10"
   guidetolerance="10"
   inkscape:pageopacity="0"
   inkscape:pageshadow="2"
   inkscape:window-width="1920"
   inkscape:window-height="1056"
   id="namedview47"
   showgrid="false"
   inkscape:zoom="1.0559683"
   inkscape:cx="356.65718"
   inkscape:cy="350.08297"
   inkscape:window-x="0"
   inkscape:window-y="0"
   inkscape:window-maximized="1"
   inkscape:current-layer="Calque_1"
   inkscape:document-rotation="0" />
<style
   type="text/css"
   id="style2">
	.st0{fill:#FFFFFF;}
	.st1{fill:none;}
	.st2{enable-background:new    ;}
	.st3{fill:#FFC951;}
	.st4{font-family:'GalanoClassic-MediumItalic';}
	.st5{font-size:171.8888px;}
	.st6{letter-spacing:-5;}
	.st7{fill:#5E6363;}
	.st8{fill:#784343;}
	.st9{fill:#DB4040;}
	.st10{fill:#797474;}
	.st11{fill:none;stroke:#FFC951;stroke-width:4;stroke-miterlimit:10;}
</style>
















<ellipse
   transform="rotate(1.124957)"
   class="st0"
   cx="246.1671"
   cy="252.68137"
   rx="10.799767"
   ry="8.3998175"
   id="ellipse4-3"
   style="fill:#ffffff;stroke-width:0.999978" /><ellipse
   class="st0"
   cx="245.99411"
   cy="176.38721"
   rx="8.3999996"
   ry="10.8"
   id="ellipse6-6"
   style="fill:#ffffff"
   transform="rotate(15)" /><ellipse
   class="st0"
   cx="345.19409"
   cy="147.48721"
   rx="8.3999996"
   ry="10.8"
   id="ellipse8-7"
   style="fill:#ffffff"
   transform="rotate(15)" /><ellipse
   transform="rotate(1.124957)"
   class="st0"
   cx="246.79561"
   cy="287.75378"
   rx="35.499229"
   ry="13.299712"
   id="ellipse10-5"
   style="fill:#ffffff;stroke-width:0.999978" /><path
   d="m 214.56733,182.12715 c -2.01136,1.32455 -3.84847,2.38521 -5.61488,3.56835 -11.70071,7.7352 -22.47525,16.65032 -31.75099,27.3129 -5.24424,6.0488 -9.88997,12.56855 -13.48012,19.78526 -3.16403,6.39913 -5.48461,13.12779 -6.45289,20.2188 -0.39009,3.00131 -0.99924,6.04744 -2.06548,8.86757 -0.5107,1.5196 -1.18871,2.89084 -2.15649,4.18444 -2.03216,2.56131 -4.4419,3.05443 -7.35169,1.55006 -1.63514,-0.85224 -2.87697,-2.01321 -4.18952,-3.29666 -2.57332,-2.76007 -4.63086,-5.89958 -6.41758,-9.2771 -5.50156,-10.37751 -9.07635,-21.37755 -10.16375,-33.16048 -0.40668,-4.66419 -0.3304,-9.19896 0.98265,-13.71293 0.93174,-3.47734 2.68106,-6.52855 5.58256,-8.85692 0.51578,-0.37944 0.86425,-0.90723 1.28344,-1.31255 2.83772,-2.8631 6.267,-4.843 9.83771,-6.57795 5.94255,-2.85938 12.32831,-4.66826 18.80373,-6.03901 10.76017,-2.2932 21.69272,-3.29788 32.70799,-3.45218 6.55121,-0.1081 13.02477,0.0736 19.55009,0.062 0.31566,-0.0189 0.41226,0.007 0.89522,0.13635 z"
   id="path20-3" /><path
   d="m 272.43793,182.5185 c 1.04357,-0.031 2.11303,-0.15851 3.1566,-0.18947 10.33912,-0.33547 20.7679,-0.2328 31.08622,0.66849 9.51969,0.79083 18.95481,2.28368 28.12417,5.15471 5.26083,1.61669 10.29565,3.69047 14.94918,6.80087 1.75068,1.19379 3.4496,2.58075 4.90357,4.10914 0.14142,0.24495 0.40531,0.41919 0.66921,0.59343 2.58719,1.93557 4.23942,4.65589 5.20856,7.60729 1.34165,3.87943 1.63972,7.78982 1.47378,11.88646 -0.12297,5.86812 -1.21187,11.47743 -2.71302,17.0798 -2.17408,8.11377 -5.28821,15.87214 -9.77357,22.9525 -1.27143,2.04045 -2.80676,3.90667 -4.4128,5.65041 -1.0385,1.17113 -2.34089,2.16801 -3.59151,2.97171 -2.96527,1.79365 -5.79234,1.13967 -7.73434,-1.6583 -0.8037,-1.25063 -1.48493,-2.57196 -2.04368,-3.96401 -0.97608,-2.53915 -1.51402,-5.16795 -1.92949,-7.86747 -1.35316,-10.40476 -5.24547,-19.83343 -10.87136,-28.58782 -5.48448,-8.50944 -12.07816,-15.97023 -19.55504,-22.83945 -8.1461,-7.46265 -16.84079,-14.03702 -26.27726,-19.77487 -0.2639,-0.17424 -0.4312,-0.32259 -0.6951,-0.49683 0,0 0.0259,-0.0966 0.0259,-0.0966 z"
   id="path22-5" /><path
   d="m 192.67174,258.04706 c -11.08227,-3.07302 -17.39447,-14.2889 -14.22486,-25.34528 3.14372,-10.95979 14.52691,-17.12364 25.36423,-13.9092 10.35435,3.08502 16.89255,13.84383 13.91613,24.95197 -3.02818,11.30134 -14.43032,17.14952 -25.0555,14.30251 z m -2.85975,-21.78238 c 2.80118,0.75058 5.83716,-0.92059 6.61362,-3.81837 0.77645,-2.89778 -0.89472,-5.93376 -3.7925,-6.71021 -2.80118,-0.75058 -5.83716,0.92059 -6.61362,3.81837 -0.80234,2.99437 0.89472,5.93376 3.7925,6.71021 z"
   id="path24-6" /><path
   d="m 269.11834,232.77166 c 2.63996,-9.85244 12.87791,-17.15137 24.08958,-14.56132 10.70283,2.55723 17.73093,13.03319 15.41171,24.00685 -2.47451,11.55322 -13.52309,18.01377 -24.11038,15.79808 -5.68002,-1.21137 -10.0886,-4.4632 -13.01362,-9.38806 -3.14409,-4.88003 -4.1941,-10.23424 -2.37729,-15.85555 z m 25.00225,3.28292 c 2.89778,0.77645 5.83717,-0.9206 6.58774,-3.72178 0.77646,-2.89778 -0.9206,-5.83717 -3.79249,-6.71022 -2.89778,-0.77646 -5.93376,0.89472 -6.61362,3.81838 -0.77646,2.89777 0.9206,5.83716 3.81837,6.61362 z"
   id="path26-2" /><path
   d="m 296.12325,295.80898 c 0.17796,-3.36873 0.13685,-6.69263 0.12162,-10.11312 0.0157,-2.37692 -0.3808,-4.76077 -1.26722,-6.86178 -1.18821,-2.90657 -2.91809,-5.33712 -4.79632,-7.60036 -0.85546,-1.05744 -1.73681,-2.01829 -2.61815,-2.97914 -0.81063,-0.83837 -1.62127,-1.67675 -2.4319,-2.51512 -0.23802,-0.27083 -0.5278,-0.34848 -0.76581,-0.61931 -1.71786,-1.70263 -3.60996,-3.14136 -5.52794,-4.48351 -3.37888,-2.45828 -7.10624,-4.38877 -10.88537,-6.12608 -1.10734,-0.50377 -2.1181,-0.98165 -3.27721,-1.29223 -2.00256,-0.64012 -4.031,-1.18364 -6.05945,-1.72716 -0.48296,-0.12941 -0.74686,-0.30364 -1.0297,-0.79354 -1.29867,-2.10795 -2.89406,-3.88129 -5.23816,-4.40587 -0.28978,-0.0777 -0.55368,-0.25188 -0.84346,-0.32953 -2.82013,-1.06623 -5.64719,-1.72021 -8.68132,-1.60145 -3.13071,0.0929 -6.24941,0.91366 -9.18187,2.19846 -0.70896,0.32767 -1.51452,0.62946 -2.22348,0.95714 -1.95266,0.71911 -3.3327,2.00578 -4.28847,4.02729 -0.30365,0.74685 -0.67107,0.95899 -1.35415,1.19006 -3.58273,1.00704 -7.07579,2.45222 -10.52402,4.11646 -5.25946,2.6283 -10.09467,5.99146 -14.67291,9.9411 -0.96085,0.88134 -1.89582,1.6661 -2.85666,2.54744 -0.7159,0.73993 -1.4318,1.47985 -2.14771,2.21977 -0.29671,0.33461 -0.6193,0.76581 -0.9419,1.19701 -1.38697,1.69891 -2.87053,3.37195 -4.18679,5.19333 -2.87747,3.7842 -4.26123,8.1757 -4.41516,13.00025 -0.19182,4.19323 -0.38365,8.38647 -0.23393,12.46416 0.11182,3.44637 0.34612,6.82204 1.01855,10.10804 0.44829,2.19067 1.11564,4.33652 2.2729,6.19952 2.1472,3.57764 5.34677,5.15965 9.19845,5.46701 2.13197,0.15715 4.19323,0.19183 6.3252,0.34898 1.30747,0.14328 2.58906,0.38315 3.81888,0.81621 1.61619,0.53658 3.10991,1.14388 4.60362,1.75117 1.88703,0.29858 3.65158,0.66786 5.5386,0.96643 3.79993,0.50055 7.63268,0.49225 11.4206,0.26489 5.90094,-0.38587 11.776,-0.67515 17.57341,-0.67465 4.43818,0.0504 8.83153,-0.11827 13.16111,-0.82166 3.5499,-0.49819 7.03603,-1.53111 10.36179,-3.12464 1.17298,-0.51392 2.34596,-1.02784 3.53789,-1.2261 2.35797,-0.29993 4.74183,-0.69646 7.0998,-0.99639 2.35798,-0.29993 4.62629,-1.038 6.66353,-2.45914 2.82385,-2.0386 4.45069,-5.0191 5.54974,-8.34808 1.39763,-5.216 1.90003,-10.56834 2.18337,-15.87586 z m -46.75154,-44.20648 -7.19689,6.76792 -7.06463,-6.86229 z m 11.35333,40.31205 c -0.24495,0.14142 -0.58649,0.25696 -0.83144,0.39838 -1.09533,0.22415 -2.21655,0.54488 -3.31189,0.76903 -6.49436,1.05508 -12.93003,1.50473 -19.45535,1.51625 -3.3239,0.0411 -6.52533,0.0115 -9.77158,-0.23716 -2.03538,-0.13126 -3.77406,-0.59714 -5.78356,-0.825 -0.38637,-0.10353 -0.88828,-0.5486 -0.77781,-1.34722 0.10352,-0.38637 0.40717,-1.13323 1.30239,-0.99688 0.89521,0.13634 1.28158,0.23987 2.27339,0.4021 0.99554,-2.94261 1.6754,-5.86627 2.74164,-8.6864 0.55689,2.94446 1.21037,5.91481 1.74138,8.95587 8.07081,0.40259 16.10372,0.17387 24.12462,-0.78276 0.82822,-3.09097 1.63056,-6.08534 2.4329,-9.07971 0,0 0.12247,-0.0707 0.12247,-0.0707 0.70525,2.77716 1.28803,5.62504 1.96739,8.49879 0.99875,-0.25003 1.46276,-0.43628 2.33903,-0.61559 0.21907,-0.0448 0.85039,-0.0827 1.01075,0.47789 0.0707,0.12247 0.21214,0.36742 0.2052,0.77967 0.1673,0.14836 -0.11046,0.79862 -0.32953,0.84345 z"
   id="path36-9" /><g
   id="g44"
   transform="rotate(15,238.25086,688.17309)"><ellipse
     class="st11"
     cx="168.5"
     cy="239.7"
     rx="31.9"
     ry="30.4"
     id="ellipse38" /><ellipse
     class="st11"
     cx="83.400002"
     cy="263"
     rx="31.9"
     ry="30.4"
     id="ellipse40" /><path
     class="st11"
     d="m 114.7,257.4 c 0,0 7,-11.8 23.9,-7.1"
     id="path42" /></g></svg>
