<?xml version="1.0" encoding="UTF-8" standalone="no"?>
<svg
   xmlns:dc="http://purl.org/dc/elements/1.1/"
   xmlns:cc="http://creativecommons.org/ns#"
   xmlns:rdf="http://www.w3.org/1999/02/22-rdf-syntax-ns#"
   xmlns:svg="http://www.w3.org/2000/svg"
   xmlns="http://www.w3.org/2000/svg"
   xmlns:sodipodi="http://sodipodi.sourceforge.net/DTD/sodipodi-0.dtd"
   xmlns:inkscape="http://www.inkscape.org/namespaces/inkscape"
   width="210mm"
   height="297mm"
   viewBox="0 0 210 297"
   version="1.1"
   id="svg1542"
   inkscape:version="1.0.1 (3bc2e813f5, 2020-09-07)"
   sodipodi:docname="foopgpg_pug_sunglasses_0.svg">
  <defs
     id="defs1536" />
  <sodipodi:namedview
     id="base"
     pagecolor="#ffffff"
     bordercolor="#666666"
     borderopacity="1.0"
     inkscape:pageopacity="0.0"
     inkscape:pageshadow="2"
     inkscape:zoom="0.98994949"
     inkscape:cx="441.4277"
     inkscape:cy="597.57993"
     inkscape:document-units="mm"
     inkscape:current-layer="layer1"
     inkscape:document-rotation="0"
     showgrid="false"
     inkscape:window-width="1678"
     inkscape:window-height="1080"
     inkscape:window-x="232"
     inkscape:window-y="0"
     inkscape:window-maximized="0" />
  <metadata
     id="metadata1539">
    <rdf:RDF>
      <cc:Work
         rdf:about="">
        <dc:format>image/svg+xml</dc:format>
        <dc:type
           rdf:resource="http://purl.org/dc/dcmitype/StillImage" />
        <dc:title></dc:title>
      </cc:Work>
    </rdf:RDF>
  </metadata>
  <g
     inkscape:label="Calque 1"
     inkscape:groupmode="layer"
     id="layer1">
    <ellipse
       transform="matrix(0.99844346,0.05577331,0.02177027,0.999763,0,0)"
       class="st0"
       cx="103.60516"
       cy="97.882271"
       rx="2.8574038"
       ry="2.2457538"
       id="ellipse4-3"
       style="fill:#ffffff;stroke-width:0.265959" />
    <ellipse
       class="st0"
       cx="114.48936"
       cy="70.935524"
       rx="2.2224998"
       ry="2.8575001"
       id="ellipse6-6"
       style="fill:#ffffff;stroke-width:0.264583"
       transform="rotate(15)" />
    <ellipse
       class="st0"
       cx="140.73602"
       cy="63.289066"
       rx="2.2224998"
       ry="2.8575001"
       id="ellipse8-7"
       style="fill:#ffffff;stroke-width:0.264583"
       transform="rotate(15)" />
    <ellipse
       transform="matrix(0.99844346,0.05577331,0.02177027,0.999763,0,0)"
       class="st0"
       cx="103.77146"
       cy="107.25914"
       rx="9.3923903"
       ry="3.5557773"
       id="ellipse10-5"
       style="fill:#ffffff;stroke-width:0.265959" />
    <path
       d="m 99.249213,84.413904 c -0.45965,0.350453 -0.879483,0.631086 -1.283152,0.944125 -2.673924,2.046605 -5.136192,4.405398 -7.255947,7.226539 -1.198446,1.600411 -2.260121,3.325428 -3.080565,5.234849 -0.723066,1.693104 -1.253379,3.473393 -1.474658,5.349563 -0.08914,0.79409 -0.228353,1.60005 -0.472019,2.34621 -0.116705,0.40206 -0.27165,0.76487 -0.492813,1.10713 -0.464402,0.67768 -1.015092,0.80815 -1.680056,0.41012 -0.373674,-0.22549 -0.657466,-0.53266 -0.957419,-0.87224 -0.588071,-0.73027 -1.058272,-1.56093 -1.466588,-2.45457 -1.25725,-2.74571 -2.074185,-5.656142 -2.322687,-8.773709 -0.09294,-1.234066 -0.07551,-2.433891 0.224562,-3.628212 0.212929,-0.920046 0.612693,-1.727345 1.275763,-2.343393 0.117869,-0.100394 0.197506,-0.240038 0.293301,-0.347279 0.648494,-0.757529 1.432177,-1.281377 2.248181,-1.740416 1.358032,-0.756544 2.817344,-1.235144 4.297153,-1.597822 2.458982,-0.606742 4.957363,-0.872564 7.474646,-0.913389 1.497126,-0.0286 2.976504,0.01947 4.467714,0.0164 0.07214,-0.005 0.09421,0.0019 0.204584,0.03608 z"
       id="path20-3"
       style="stroke-width:0.245895" />
    <path
       d="m 112.47418,84.517448 c 0.23849,-0.0082 0.48288,-0.04194 0.72137,-0.05013 2.36277,-0.08876 4.74602,-0.0616 7.10403,0.176871 2.1755,0.20924 4.33168,0.604224 6.42712,1.36385 1.20224,0.427749 2.35283,0.976437 3.41629,1.799397 0.40007,0.315857 0.78832,0.682823 1.12059,1.08721 0.0323,0.06481 0.0926,0.110911 0.15293,0.157012 0.59125,0.512119 0.96882,1.231871 1.1903,2.012762 0.3066,1.026432 0.37472,2.061056 0.3368,3.144959 -0.0281,1.552606 -0.27695,3.036736 -0.62,4.51903 -0.49683,2.146771 -1.2085,4.199501 -2.23352,6.072851 -0.29056,0.53987 -0.64142,1.03364 -1.00844,1.495 -0.23733,0.30986 -0.53496,0.57362 -0.82076,0.78627 -0.67764,0.47457 -1.3237,0.30154 -1.7675,-0.43876 -0.18367,-0.33089 -0.33935,-0.6805 -0.46704,-1.04881 -0.22306,-0.67182 -0.34599,-1.36736 -0.44094,-2.0816 -0.30923,-2.75293 -1.19873,-5.247599 -2.48439,-7.563864 -1.25335,-2.251456 -2.76018,-4.225457 -4.46885,-6.042938 -1.8616,-1.974493 -3.84857,-3.713961 -6.00505,-5.232101 -0.0603,-0.0461 -0.0985,-0.08535 -0.15885,-0.131453 0,0 0.006,-0.02556 0.006,-0.02556 z"
       id="path22-5"
       style="stroke-width:0.245895" />
    <path
       d="m 92.417166,104.50105 c -2.932184,-0.81307 -4.602287,-3.78061 -3.763661,-6.705943 0.831776,-2.899777 3.843579,-4.530629 6.710953,-3.680142 2.739588,0.816245 4.469487,3.662846 3.681976,6.601875 -0.801206,2.99015 -3.818022,4.53748 -6.629268,3.78421 z m -0.756642,-5.763257 c 0.741146,0.19859 1.544415,-0.243575 1.749854,-1.010279 0.205435,-0.766704 -0.236728,-1.569974 -1.003433,-1.77541 -0.741145,-0.19859 -1.544415,0.243573 -1.749853,1.010278 -0.212286,0.79226 0.236728,1.569974 1.003432,1.775411 z"
       id="path24-6"
       style="stroke-width:0.264583" />
    <path
       d="m 112.64366,97.813596 c 0.69849,-2.606791 3.40728,-4.537966 6.3737,-3.852682 2.83179,0.6766 4.69131,3.448365 4.07769,6.351816 -0.65472,3.05679 -3.57799,4.76614 -6.37921,4.17991 -1.50284,-0.32051 -2.66928,-1.18089 -3.44319,-2.48393 -0.83187,-1.29117 -1.10968,-2.707807 -0.62899,-4.195114 z m 6.61518,0.868606 c 0.7667,0.205438 1.54442,-0.243575 1.74301,-0.984721 0.20543,-0.766704 -0.24358,-1.544418 -1.00343,-1.775412 -0.76671,-0.205438 -1.56998,0.236728 -1.74986,1.01028 -0.20544,0.766701 0.24358,1.544415 1.01028,1.749853 z"
       id="path26-2"
       style="stroke-width:0.264583" />
    <path
       d="m 120.50761,114.41805 c 0.01,-0.89956 -0.0375,-1.7892 -0.0792,-2.70443 -0.022,-0.63576 -0.15292,-1.27728 -0.41007,-1.8478 -0.34568,-0.7889 -0.82912,-1.45559 -1.34989,-2.07893 -0.23748,-0.29103 -0.48073,-0.55647 -0.72398,-0.82191 -0.22324,-0.23199 -0.44648,-0.46399 -0.66972,-0.69599 -0.0658,-0.0747 -0.14317,-0.0983 -0.20899,-0.17297 -0.47226,-0.47183 -0.98761,-0.87473 -1.50874,-1.25203 -0.91909,-0.68979 -1.92437,-1.24169 -2.94119,-1.7424 -0.29788,-0.1453 -0.56998,-0.28275 -0.87941,-0.37686 -0.53573,-0.19029 -1.07723,-0.35498 -1.61873,-0.51967 -0.12892,-0.0392 -0.20051,-0.0883 -0.28057,-0.22209 -0.36606,-0.57629 -0.80676,-1.06588 -1.43139,-1.22851 -0.0774,-0.0235 -0.14894,-0.0726 -0.2263,-0.0962 -0.75625,-0.31206 -1.5098,-0.51389 -2.30952,-0.51096 -0.82549,-0.005 -1.63981,0.18503 -2.39985,0.50088 -0.18356,0.0809 -0.39291,0.154 -0.57646,0.23493 -0.5076,0.17382 -0.85778,0.50493 -1.08785,1.03666 -0.0719,0.19692 -0.16661,0.25018 -0.3444,0.30551 -0.93477,0.23536 -1.841043,0.58878 -2.733072,1.00124 -1.359585,0.65316 -2.599084,1.50695 -3.764285,2.52009 -0.243967,0.22665 -0.482164,0.42771 -0.726131,0.65437 -0.180853,0.19115 -0.361712,0.38229 -0.54257,0.57344 -0.07465,0.0867 -0.15507,0.19899 -0.23549,0.31129 -0.347467,0.44133 -0.72072,0.87481 -1.048168,1.34958 -0.718013,0.98505 -1.035,2.14676 -1.02254,3.43602 -0.0045,1.12 -0.009,2.24 0.07542,3.33234 0.06746,0.92308 0.16646,1.8284 0.380148,2.71391 0.142463,0.59034 0.342257,1.17076 0.66828,1.68018 0.606245,0.97754 1.468353,1.4312 2.488594,1.55004 0.564573,0.0623 1.109133,0.0912 1.673712,0.15349 0.346752,0.0508 0.687736,0.12711 1.017177,0.25466 0.432583,0.15892 0.833617,0.33559 1.234644,0.51226 0.50147,0.0978 0.971378,0.21338 1.472841,0.3112 1.0087,0.17003 2.02047,0.20425 3.01799,0.17943 1.55362,-0.0471 3.10147,-0.0687 4.63201,-0.0134 1.17225,0.0557 2.33025,0.0523 3.46553,-0.0947 0.9317,-0.0995 1.84068,-0.34274 2.70116,-0.73744 0.30401,-0.12635 0.60803,-0.25269 0.92051,-0.2944 0.61922,-0.0578 1.2442,-0.14125 1.86341,-0.19907 0.61921,-0.0578 1.20993,-0.23372 1.73213,-0.59456 0.72306,-0.51855 1.11975,-1.30046 1.37327,-2.18062 0.31157,-1.38217 0.3853,-2.80932 0.40169,-4.22656 z m -12.82907,-12.27108 -1.82552,1.74222 -1.94061,-1.90304 z m 3.44097,10.8927 c -0.0631,0.0355 -0.152,0.0632 -0.21511,0.0987 -0.28671,0.0495 -0.57919,0.1247 -0.86589,0.17426 -1.70292,0.22053 -3.39701,0.27965 -5.11959,0.2207 -0.87707,-0.0206 -1.72258,-0.0589 -2.58234,-0.15633 -0.53879,-0.0545 -1.00293,-0.19563 -1.53595,-0.27569 -0.10314,-0.0314 -0.24055,-0.15522 -0.22017,-0.36782 0.0231,-0.10239 0.095,-0.29931 0.33286,-0.25432 0.23784,0.045 0.34098,0.0764 0.60461,0.12918 0.23043,-0.77778 0.37774,-1.55349 0.62819,-2.29783 0.17943,0.79303 0.38464,1.59391 0.5583,2.41254 2.13515,0.18442 4.25334,0.1996 6.36036,0.0199 0.18463,-0.81906 0.3635,-1.61252 0.54236,-2.40599 0,0 0.0316,-0.0177 0.0316,-0.0177 0.21675,0.74968 0.40195,1.51712 0.61293,2.2924 0.26092,-0.0574 0.38137,-0.10281 0.61074,-0.14245 0.0573,-0.01 0.22359,-0.0141 0.2721,0.13746 0.02,0.0334 0.0601,0.10031 0.0628,0.21053 0.0458,0.0413 -0.0204,0.21261 -0.0777,0.22252 z"
       id="path36-9"
       style="stroke-width:0.265565" />
    <ellipse
       class="st11"
       cx="138.68942"
       cy="64.145363"
       rx="8.4402084"
       ry="8.0433331"
       id="ellipse38"
       style="fill:#ff8012;fill-opacity:0.501961;stroke:#ff8012;stroke-width:0.529167;stroke-miterlimit:10;stroke-dasharray:none;stroke-opacity:1"
       transform="rotate(15)" />
    <ellipse
       class="st11"
       cx="116.17338"
       cy="70.310158"
       rx="8.4402084"
       ry="8.0433331"
       id="ellipse40"
       style="fill:#ff8012;fill-opacity:0.501961;stroke:#ff8012;stroke-width:0.529167;stroke-miterlimit:10;stroke-dasharray:none;stroke-opacity:1"
       transform="rotate(15)" />
    <path
       class="st11"
       d="m 102.40004,98.69445 c 0,0 2.59703,-2.536346 6.59427,-0.177878"
       id="path42"
       style="fill:none;fill-opacity:0.501961;stroke:#ff8012;stroke-width:0.529167;stroke-miterlimit:10;stroke-dasharray:none;stroke-opacity:1" />
  </g>
</svg>
