<?xml version="1.0" encoding="UTF-8" standalone="no"?>
<svg
   xmlns:dc="http://purl.org/dc/elements/1.1/"
   xmlns:cc="http://creativecommons.org/ns#"
   xmlns:rdf="http://www.w3.org/1999/02/22-rdf-syntax-ns#"
   xmlns:svg="http://www.w3.org/2000/svg"
   xmlns="http://www.w3.org/2000/svg"
   xmlns:sodipodi="http://sodipodi.sourceforge.net/DTD/sodipodi-0.dtd"
   xmlns:inkscape="http://www.inkscape.org/namespaces/inkscape"
   version="1.1"
   id="Calque_1"
   x="0px"
   y="0px"
   viewBox="0 0 349.99999 70.000001"
   xml:space="preserve"
   sodipodi:docname="foopgp_logo_sunglasses_15left.svg"
   width="350"
   height="70"
   inkscape:version="1.0.1 (3bc2e813f5, 2020-09-07)"><metadata
   id="metadata51"><rdf:RDF><cc:Work
       rdf:about=""><dc:format>image/svg+xml</dc:format><dc:type
         rdf:resource="http://purl.org/dc/dcmitype/StillImage" /><dc:title></dc:title></cc:Work></rdf:RDF></metadata><defs
   id="defs49" /><sodipodi:namedview
   pagecolor="#ffffff"
   bordercolor="#666666"
   borderopacity="1"
   objecttolerance="10"
   gridtolerance="10"
   guidetolerance="10"
   inkscape:pageopacity="0"
   inkscape:pageshadow="2"
   inkscape:window-width="1920"
   inkscape:window-height="1056"
   id="namedview47"
   showgrid="false"
   fit-margin-top="0"
   fit-margin-left="0"
   fit-margin-right="0"
   fit-margin-bottom="0"
   inkscape:zoom="6.1371429"
   inkscape:cx="96.160531"
   inkscape:cy="47.11254"
   inkscape:window-x="0"
   inkscape:window-y="0"
   inkscape:window-maximized="1"
   inkscape:current-layer="Calque_1" />
<style
   type="text/css"
   id="style2">
	.st0{fill:#FAFAFA;}
	.st1{fill:none;}
	.st2{enable-background:new    ;}
	.st3{fill:#FF8012;}
	.st4{font-family:'GalanoClassic-MediumItalic';}
	.st5{font-size:171.8888px;}
	.st6{letter-spacing:-5;}
	.st7{fill:#5E6363;}
	.st8{fill:#784343;}
	.st9{fill:#DB4040;}
	.st10{fill:#797474;}
	.st11{fill:none;stroke:#FFC951;stroke-width:4;stroke-miterlimit:10;}
</style>
<ellipse
   transform="matrix(0.97200464,-0.23496165,0.28149629,0.95956232,0,0)"
   class="st0"
   cx="38.401596"
   cy="48.166004"
   rx="3.5120924"
   ry="3.393575"
   id="ellipse4"
   style="stroke-width:0.362462" />
<ellipse
   class="st0"
   cx="30.00197"
   cy="30.719229"
   rx="2.8112526"
   ry="4.2789025"
   id="ellipse6"
   style="stroke-width:0.364136"
   transform="matrix(0.99842353,0.05612886,0.08734619,0.99617802,0,0)" />
<ellipse
   class="st0"
   cx="63.201538"
   cy="19.269205"
   rx="2.8112526"
   ry="4.2789025"
   id="ellipse8"
   style="stroke-width:0.364136"
   transform="matrix(0.99842353,0.05612886,0.08734619,0.99617802,0,0)" />
<ellipse
   transform="matrix(0.97200464,-0.23496165,0.28149629,0.95956232,0,0)"
   class="st0"
   cx="38.605995"
   cy="62.335464"
   rx="11.544379"
   ry="5.3731604"
   id="ellipse10"
   style="stroke-width:0.362462" />

<text
   class="st2"
   id="text18"
   style="font-style:italic;font-variant:normal;font-weight:normal;font-stretch:normal;font-size:73.9897px;font-family:sans-serif;-inkscape-font-specification:'sans-serif, Italic';font-variant-ligatures:normal;font-variant-caps:normal;font-variant-numeric:normal;font-variant-east-asian:normal;stroke-width:0.385313;enable-background:new"
   x="103.37478"
   y="57.322372"
   transform="scale(1.0534518,0.94926033)"><tspan
     x="103.37478"
     y="57.322372"
     class="st3 st4 st5 st6"
     id="tspan14"
     style="font-style:italic;font-variant:normal;font-weight:normal;font-stretch:normal;font-size:73.9897px;font-family:sans-serif;-inkscape-font-specification:'sans-serif, Italic';font-variant-ligatures:normal;font-variant-caps:normal;font-variant-numeric:normal;font-variant-east-asian:normal;stroke-width:0.385313">foo</tspan><tspan
     x="203.44009"
     y="57.322372"
     class="st0 st4 st5 st6"
     id="tspan16"
     style="font-style:italic;font-variant:normal;font-weight:normal;font-stretch:normal;font-size:73.9897px;font-family:sans-serif;-inkscape-font-specification:'sans-serif, Italic';font-variant-ligatures:normal;font-variant-caps:normal;font-variant-numeric:normal;font-variant-east-asian:normal;stroke-width:0.385313">pgp</tspan></text>
<path
   d="m 33.506758,10.341482 c -0.472344,0.680369 -0.921651,1.244213 -1.334087,1.849402 -2.744191,3.969446 -5.056257,8.316644 -6.688461,13.212621 -0.920345,2.775953 -1.596404,5.683458 -1.857652,8.771377 -0.212997,2.721089 0.03263,5.30961 0.399505,8.348439 0.237479,1.191555 0.631955,2.527836 0.635524,3.706239 0.110427,1.05987 0.114542,1.711067 -0.03404,2.291819 -0.799978,1.630822 -0.997242,1.51003 -2.090733,1.173642 -0.615298,-0.191684 -1.237306,-0.59493 -1.803084,-0.980198 -1.138478,-0.849475 -2.459167,-2.39112 -3.424842,-3.545066 -2.970775,-3.544528 -4.453064,-7.682729 -6.207187,-12.140697 -0.6869,-1.766653 -0.764126,-2.741139 -1.2566704,-5.059058 -0.079387,-1.694241 -0.1431796,-0.97407 0.030919,-2.514644 0.084234,-0.598194 0.3695186,-1.519549 0.7395666,-2.447881 0.534337,-1.126413 0.85677,-1.780938 1.654598,-2.748231 1.521921,-1.603199 3.116789,-2.953471 4.947144,-4.1963 3.101597,-1.78931 6.411792,-3.095613 9.849915,-4.080535 2.042827,-0.592079 4.096032,-1.065756 6.142319,-1.618368 0.09677,-0.03384 0.130194,-0.03196 0.297269,-0.0226 z"
   id="path20"
   style="fill:#08000f;fill-opacity:1;stroke-width:0.362;stroke-miterlimit:4;stroke-dasharray:none"
   sodipodi:nodetypes="scccccccccccccccccss" />
<path
   d="m 51.713652,5.6310992 c 0.323762,-0.099624 0.644068,-0.2387059 0.967832,-0.3383255 3.204217,-0.998072 6.489113,-1.8345146 9.835107,-2.3533346 3.082131,-0.4943786 6.221908,-0.7106043 9.443548,-0.3723981 1.844724,0.1822501 3.673331,0.5599687 5.506596,1.3699522 0.692511,0.313846 1.391949,0.7066288 2.03148,1.1745895 0.07375,0.082691 0.177456,0.1277956 0.281162,0.1728973 1.043957,0.5299735 1.674613,1.5827066 2.332634,2.6408102 0.886203,1.3851177 1.330511,2.7340018 1.769662,4.3296288 0.665077,2.275973 1.328137,4.527785 1.52883,6.816938 0.290687,3.315316 0.243764,6.572377 -0.314749,9.68286 -0.154307,0.894614 -0.412309,1.744127 -0.707212,2.552292 -0.185441,0.539405 -0.336808,0.838105 -0.632885,1.253466 -0.845218,0.72908 -1.474669,1.038189 -2.763707,0.205073 C 80.589785,32.350205 80.217576,31.897274 79.87532,31.40675 79.264549,30.508397 78.78052,29.538622 78.326442,28.531256 76.654183,24.62772 74.302175,21.31434 71.487012,18.406936 68.745599,15.582222 65.781857,13.255566 62.6119,11.231504 59.160786,9.0345452 55.644031,7.2266284 51.994812,5.8039997 51.891115,5.7588964 51.820816,5.7156734 51.717112,5.6705674 l -0.0034,-0.039483 z"
   id="path22"
   style="fill:#08000f;fill-opacity:1;stroke-width:0.362257"
   sodipodi:nodetypes="sccccccccsccccccccccss" />
<path
   d="m 35.739419,41.493059 c -3.846132,-0.255486 -7.171817,-4.055618 -7.502957,-8.590682 -0.327675,-4.495602 2.505291,-7.831681 6.291516,-7.50101 3.619151,0.321281 6.960947,3.925944 7.358919,8.464766 0.404889,4.617761 -2.471876,7.833558 -6.147478,7.626926 z m -3.509325,-8.169806 c 0.969022,0.05448 1.721331,-0.845794 1.617513,-2.029835 -0.10382,-1.184043 -0.992282,-2.215825 -1.994719,-2.27218 -0.969023,-0.05448 -1.721332,0.845794 -1.617514,2.029835 0.107285,1.22351 0.992284,2.215826 1.99472,2.27218 z"
   id="path24"
   style="stroke-width:0.362257"
   sodipodi:nodetypes="cccscsssss" />
<path
   d="m 56.697817,25.312403 c -0.35298,-4.025741 1.984503,-7.703864 5.813333,-7.645709 3.665217,0.08823 7.12683,3.542531 7.714904,7.974221 0.608843,4.668502 -2.083552,8.091031 -5.671556,8.124963 -1.927663,0.0095 -3.701016,-0.87571 -5.20944,-2.531452 -1.57179,-1.620029 -2.543307,-3.599043 -2.647241,-5.922023 z m 8.239436,-0.832827 c 1.002441,0.05635 1.721335,-0.845793 1.620977,-1.990369 -0.103819,-1.184038 -0.988822,-2.176356 -1.994723,-2.27218 -1.002434,-0.05635 -1.754745,0.843918 -1.617513,2.029838 0.10382,1.184041 0.988824,2.176357 1.991259,2.232711 z"
   id="path26"
   style="stroke-width:0.362257"
   sodipodi:nodetypes="ccccccssccs" />




<path
   d="m 72.730853,47.382151 c -0.34816,-1.315579 -0.759571,-2.59548 -1.174494,-3.914832 -0.280078,-0.919039 -0.690363,-1.806116 -1.220457,-2.542837 -0.721397,-1.022394 -1.55568,-1.815492 -2.41646,-2.531533 -0.395243,-0.336408 -0.787026,-0.633345 -1.178817,-0.930284 -0.354907,-0.255593 -0.709814,-0.51119 -1.064721,-0.766781 -0.107159,-0.08458 -0.207411,-0.09021 -0.314577,-0.17478 -0.743233,-0.513063 -1.509495,-0.909601 -2.272302,-1.266673 -1.355078,-0.665282 -2.756222,-1.097513 -4.150437,-1.450804 -0.407895,-0.101472 -0.782376,-0.201077 -1.183349,-0.223618 -0.705171,-0.07892 -1.406877,-0.118368 -2.108578,-0.157815 -0.167074,-0.0094 -0.270783,-0.0545 -0.418275,-0.219883 -0.660298,-0.704769 -1.373576,-1.255423 -2.172066,-1.261039 -0.100245,-0.0056 -0.203947,-0.05074 -0.304191,-0.05637 -1.012818,-0.174759 -1.978379,-0.18976 -2.916255,0.110968 -0.971312,0.298785 -1.85153,0.877746 -2.617679,1.620144 -0.183186,0.186071 -0.399785,0.370264 -0.582969,0.556332 -0.52652,0.441682 -0.805295,1.054383 -0.86282,1.915172 -0.0057,0.313863 -0.09559,0.426632 -0.282236,0.573235 -1.003513,0.68978 -1.926357,1.541192 -2.808864,2.473412 -1.335274,1.456605 -2.4493,3.161284 -3.412361,5.070817 -0.195838,0.421001 -0.395134,0.802528 -0.59097,1.223531 -0.135926,0.345818 -0.271852,0.691639 -0.40778,1.037457 -0.05299,0.154116 -0.102508,0.347699 -0.152039,0.541284 -0.231519,0.77245 -0.496453,1.543029 -0.691096,2.356827 -0.449194,1.702782 -0.356838,3.514556 0.173372,5.390218 0.442576,1.635104 0.885153,3.270209 1.421174,4.831982 0.448349,1.321238 0.926644,2.604871 1.531682,3.817091 0.403356,0.80815 0.870081,1.580581 1.456623,2.202657 1.102794,1.200933 2.296529,1.542956 3.542058,1.338061 0.687865,-0.118417 1.338849,-0.278199 2.026711,-0.396622 0.427475,-0.0545 0.858399,-0.06956 1.296248,-0.0057 0.571501,0.07135 1.113063,0.180392 1.654614,0.289381 0.62796,-0.04323 1.225961,-0.04886 1.853913,-0.09216 1.252453,-0.125963 2.454183,-0.451135 3.615581,-0.857132 1.805462,-0.644687 3.614386,-1.249921 5.433691,-1.736751 1.398751,-0.353385 2.757179,-0.787566 4.031471,-1.422854 1.054229,-0.490556 2.02433,-1.182221 2.876882,-2.076858 0.306462,-0.296957 0.612922,-0.593917 0.963178,-0.770588 0.703975,-0.313887 1.40449,-0.667245 2.108463,-0.98113 0.703975,-0.313886 1.327281,-0.789393 1.79616,-1.509238 0.641681,-1.024309 0.7948,-2.311728 0.740506,-3.68935 -0.186873,-2.131272 -0.671016,-4.239988 -1.218527,-6.312989 z M 52.759276,34.24171 51.312412,37.459345 48.27265,35.40333 Z m 8.39653,14.610493 c -0.05992,0.07517 -0.153227,0.148481 -0.213135,0.223655 -0.316843,0.178559 -0.630225,0.396582 -0.947068,0.575134 -1.911433,0.952931 -3.877051,1.667171 -5.923337,2.219783 -1.038125,0.295092 -2.046277,0.552647 -3.094787,0.729311 -0.654449,0.120303 -1.255914,0.08649 -1.913822,0.167321 -0.13366,-0.0075 -0.34453,-0.137191 -0.405627,-0.454815 -0.01383,-0.157872 -0.0081,-0.47174 0.289159,-0.494299 0.297269,-0.0226 0.430931,-0.01503 0.761613,-0.03573 -0.04044,-1.21975 -0.177686,-2.405667 -0.181257,-3.584074 0.527823,1.090055 1.089065,2.181993 1.620352,3.311519 2.58092,-0.522559 5.074248,-1.285681 7.47652,-2.328831 l -0.325298,-3.709995 0.02997,-0.03759 c 0.554321,1.013004 1.078682,2.063591 1.636459,3.11606 0.283428,-0.180438 0.406708,-0.291326 0.66018,-0.43417 0.06338,-0.03571 0.256935,-0.103383 0.37448,0.09961 0.03687,0.04133 0.110623,0.124036 0.157889,0.283786 0.07029,0.04322 0.06111,0.317626 -0.0023,0.353331 z"
   id="path36"
   style="fill:#08000f;fill-opacity:1;stroke-width:0.362257"
   sodipodi:nodetypes="scccccccccsccccccccccccccccscccccccccccsccsscccccccccccscccccccscccc" />

<ellipse
   style="fill:#ff8012;fill-opacity:0.501961;fill-rule:nonzero;stroke:#ff8012;stroke-width:0.7;stroke-miterlimit:4;stroke-dasharray:none;stroke-opacity:1"
   id="path1525"
   cx="24.911562"
   cy="40.837749"
   rx="11.693556"
   ry="11.472692"
   transform="rotate(-16.091186)" /><ellipse
   style="fill:#ff8012;fill-opacity:0.501961;fill-rule:nonzero;stroke:#ff8012;stroke-width:0.7;stroke-miterlimit:4;stroke-dasharray:none;stroke-opacity:1"
   id="path1525-1"
   cx="53.045628"
   cy="40.837749"
   rx="11.693556"
   ry="11.472692"
   transform="rotate(-16.091186)" /><path
   style="fill:none;stroke:#ff8012;stroke-width:0.7;stroke-linecap:round;stroke-linejoin:round;stroke-miterlimit:4;stroke-dasharray:none;stroke-opacity:1"
   d="m 46.812051,29.471685 c 1.809053,-2.003124 4.196797,-1.327712 4.196797,-1.327712"
   id="path1804"
   sodipodi:nodetypes="cc" /></svg>
