<?xml version="1.0" encoding="UTF-8" standalone="no"?>
<svg
   xmlns:dc="http://purl.org/dc/elements/1.1/"
   xmlns:cc="http://creativecommons.org/ns#"
   xmlns:rdf="http://www.w3.org/1999/02/22-rdf-syntax-ns#"
   xmlns:svg="http://www.w3.org/2000/svg"
   xmlns="http://www.w3.org/2000/svg"
   xmlns:sodipodi="http://sodipodi.sourceforge.net/DTD/sodipodi-0.dtd"
   xmlns:inkscape="http://www.inkscape.org/namespaces/inkscape"
   version="1.1"
   id="Calque_1"
   x="0px"
   y="0px"
   viewBox="0 0 349.99999 70.000001"
   xml:space="preserve"
   sodipodi:docname="foopgp_logo_sunglasses_15left.svg"
   width="350"
   height="70"
   inkscape:version="1.0.1 (3bc2e813f5, 2020-09-07)"><metadata
   id="metadata51"><rdf:RDF><cc:Work
       rdf:about=""><dc:format>image/svg+xml</dc:format><dc:type
         rdf:resource="http://purl.org/dc/dcmitype/StillImage" /><dc:title /></cc:Work></rdf:RDF></metadata><defs
   id="defs49" /><sodipodi:namedview
   pagecolor="#ffffff"
   bordercolor="#666666"
   borderopacity="1"
   objecttolerance="10"
   gridtolerance="10"
   guidetolerance="10"
   inkscape:pageopacity="0"
   inkscape:pageshadow="2"
   inkscape:window-width="1920"
   inkscape:window-height="1056"
   id="namedview47"
   showgrid="false"
   fit-margin-top="0"
   fit-margin-left="0"
   fit-margin-right="0"
   fit-margin-bottom="0"
   inkscape:zoom="6.8285714"
   inkscape:cx="82.224998"
   inkscape:cy="46.882945"
   inkscape:window-x="0"
   inkscape:window-y="0"
   inkscape:window-maximized="1"
   inkscape:current-layer="g44"
   inkscape:document-rotation="0" />
<style
   type="text/css"
   id="style2">
	.st0{fill:#FAFAFA;}
	.st1{fill:none;}
	.st2{enable-background:new    ;}
	.st3{fill:#FF8012;}
	.st4{font-family:'GalanoClassic-MediumItalic';}
	.st5{font-size:171.8888px;}
	.st6{letter-spacing:-5;}
	.st7{fill:#5E6363;}
	.st8{fill:#784343;}
	.st9{fill:#DB4040;}
	.st10{fill:#797474;}
	.st11{fill:none;stroke:#FFC951;stroke-width:4;stroke-miterlimit:10;}
</style>





<text
   class="st2"
   id="text18"
   style="font-style:italic;font-variant:normal;font-weight:normal;font-stretch:normal;font-size:73.9897px;font-family:sans-serif;-inkscape-font-specification:'sans-serif, Italic';font-variant-ligatures:normal;font-variant-caps:normal;font-variant-numeric:normal;font-variant-east-asian:normal;stroke-width:0.385313;enable-background:new"
   x="103.37478"
   y="57.322372"
   transform="scale(1.0534518,0.94926033)"><tspan
     x="103.37478"
     y="57.322372"
     class="st3 st4 st5 st6"
     id="tspan14"
     style="font-style:italic;font-variant:normal;font-weight:normal;font-stretch:normal;font-size:73.9897px;font-family:sans-serif;-inkscape-font-specification:'sans-serif, Italic';font-variant-ligatures:normal;font-variant-caps:normal;font-variant-numeric:normal;font-variant-east-asian:normal;stroke-width:0.385313">foo</tspan><tspan
     x="203.44009"
     y="57.322372"
     class="st0 st4 st5 st6"
     id="tspan16"
     style="font-style:italic;font-variant:normal;font-weight:normal;font-stretch:normal;font-size:73.9897px;font-family:sans-serif;-inkscape-font-specification:'sans-serif, Italic';font-variant-ligatures:normal;font-variant-caps:normal;font-variant-numeric:normal;font-variant-east-asian:normal;stroke-width:0.385313">pgp</tspan></text>










<ellipse
   transform="matrix(0.97885752,-0.2045433,0.27978617,0.96006234,0,0)"
   class="st0"
   cx="45.261669"
   cy="47.202538"
   rx="4.461628"
   ry="3.5065813"
   id="ellipse4-3"
   style="fill:#ffffff;stroke-width:0.415276" /><ellipse
   class="st0"
   cx="35.165077"
   cy="33.177277"
   rx="3.4702721"
   ry="4.4617786"
   id="ellipse6-6"
   style="fill:#ffffff;stroke-width:0.413128" /><ellipse
   class="st0"
   cx="76.147339"
   cy="21.2379"
   rx="3.4702721"
   ry="4.4617786"
   id="ellipse8-7"
   style="fill:#ffffff;stroke-width:0.413128" /><ellipse
   transform="matrix(0.97885752,-0.2045433,0.27978617,0.96006234,0,0)"
   class="st0"
   cx="45.521328"
   cy="61.843842"
   rx="14.665535"
   ry="5.5520878"
   id="ellipse10-5"
   style="fill:#ffffff;stroke-width:0.415276" /><path
   d="m 40.202156,9.6223105 c -0.551626,0.7143215 -1.071417,1.3072465 -1.553732,1.9425145 -3.205788,4.167338 -5.966183,8.719989 -8.023152,13.831555 -1.160748,2.8981 -2.064866,5.928863 -2.530626,9.140259 -0.406321,2.845789 -0.486682,5.745178 -0.06221,8.664275 0.186458,1.2337 0.302213,2.50552 0.236251,3.729368 -0.01353,0.653558 -0.100603,1.263373 -0.295848,1.868962 -0.426552,1.209771 -1.204387,1.629098 -2.368163,1.29751 -0.654705,-0.189078 -1.206863,-0.537676 -1.796497,-0.928615 -1.182064,-0.863753 -2.22692,-1.926556 -3.203898,-3.109345 -3.005828,-3.633067 -5.414136,-7.692493 -7.048818,-12.294055 -0.638895,-1.823688 -1.097484,-3.640336 -1.127577,-5.562904 -0.05066,-1.473684 0.226015,-2.852827 0.977104,-4.049934 0.137209,-0.199044 0.200886,-0.441849 0.302021,-0.642305 0.67194,-1.404591 1.642204,-2.511377 2.687408,-3.533483 1.742476,-1.689856 3.750029,-3.00144 5.83535,-4.146467 3.463489,-1.908849 7.124179,-3.31943 10.904301,-4.398299 2.246437,-0.648208 4.497105,-1.173523 6.744934,-1.7807965 0.106732,-0.03688 0.142874,-0.03518 0.323137,-0.0283 z"
   id="path20-3"
   style="stroke-width:0.383947" /><path
   d="M 60.190203,4.4339131 C 60.546576,4.3251715 60.901544,4.175499 61.257918,4.0667574 64.785625,2.9780323 68.391074,2.0558405 72.043859,1.462596 c 3.365703,-0.56360252 6.777319,-0.83924612 10.2447,-0.54038682 1.98611,0.15928442 3.943196,0.52183682 5.879708,1.33328012 0.731049,0.3146937 1.464917,0.7112676 2.129477,1.1868933 0.07493,0.084682 0.184523,0.1298463 0.29411,0.175002 1.098688,0.5334555 1.95903,1.4664123 2.608643,2.5546613 0.877235,1.4241828 1.39809,2.9570993 1.778923,4.6071931 0.585046,2.353039 0.809538,4.691996 0.891174,7.066261 0.118229,3.438592 -0.125548,6.822174 -0.914445,10.061836 -0.220048,0.931668 -0.549682,1.818177 -0.916783,2.662342 -0.232715,0.563248 -0.575016,1.081335 -0.920133,1.517553 -0.83025,0.98961 -1.87458,0.989728 -2.843102,0.05255 -0.410735,-0.424838 -0.786816,-0.889205 -1.128245,-1.3931 -0.607924,-0.923104 -1.074423,-1.92245 -1.50627,-2.961323 C 86.062693,23.758301 83.712972,20.355252 80.837833,17.381379 78.03763,14.492193 74.967245,12.123912 71.6557,10.073261 68.050048,7.8476147 64.350289,6.0270898 60.484307,4.6088957 60.374711,4.563722 60.301194,4.5199894 60.191604,4.4748244 c 0,0 -0.0014,-0.040922 -0.0014,-0.040922 z"
   id="path22-5"
   style="stroke-width:0.383947" /><path
   d="m 38.015661,42.67922 c -4.750968,-0.04131 -8.469113,-3.842087 -8.386488,-8.593054 0.08263,-4.709656 3.966024,-8.386495 8.634362,-8.262553 4.461779,0.123938 8.22124,3.718149 8.221241,8.469117 6e-6,4.833592 -3.924708,8.386489 -8.469115,8.38649 z m -3.47027,-8.386491 c 1.198073,-1e-6 2.230885,-0.991505 2.230889,-2.230889 -6e-6,-1.239383 -0.991504,-2.272204 -2.230894,-2.272199 -1.198064,-4e-6 -2.230886,0.991502 -2.23089,2.230887 8e-6,1.280693 0.991514,2.2722 2.230895,2.272201 z"
   id="path24-6"
   style="stroke-width:0.413128" /><path
   d="m 65.81915,24.418979 c 0,-4.213901 3.305022,-8.22124 8.055989,-8.38649 4.544404,-0.12394 8.469117,3.305018 8.716994,7.932049 0.247875,4.874906 -3.470273,8.634368 -7.932051,8.882245 -2.39614,0.123937 -4.503091,-0.702317 -6.196915,-2.354829 -1.776449,-1.611197 -2.767955,-3.635523 -2.644017,-6.072975 z m 10.328191,-1.363322 c 1.239383,0 2.23089,-0.991506 2.23089,-2.189575 0,-1.239384 -0.991507,-2.230892 -2.23089,-2.272204 -1.239384,-1e-6 -2.272202,0.991508 -2.230889,2.230891 -1e-6,1.23938 0.991506,2.230888 2.230889,2.230888 z"
   id="path26-2"
   style="stroke-width:0.413128" /><path
   d="m 84.390048,46.284156 c -0.34859,-1.360729 -0.779664,-2.683335 -1.21238,-4.046879 -0.290114,-0.949964 -0.746831,-1.864621 -1.365219,-2.621167 -0.840177,-1.050134 -1.838744,-1.860283 -2.876087,-2.589968 -0.47579,-0.342968 -0.94994,-0.645 -1.424089,-0.947032 -0.430448,-0.259688 -0.860894,-0.519377 -1.291344,-0.779066 -0.129463,-0.08609 -0.255642,-0.09032 -0.385103,-0.17641 -0.902956,-0.520786 -1.843045,-0.92017 -2.781495,-1.278621 -1.664957,-0.668926 -3.404182,-1.095055 -5.140124,-1.439311 -0.508,-0.09876 -0.973941,-0.196115 -1.478658,-0.213005 -0.884897,-0.07049 -1.768153,-0.100051 -2.651407,-0.129609 -0.210297,-0.007 -0.33812,-0.0522 -0.512925,-0.221567 -0.784985,-0.721241 -1.647522,-1.281555 -2.655315,-1.274399 -0.126181,-0.0042 -0.254,-0.04938 -0.380179,-0.0536 -1.266719,-0.165031 -2.484809,-0.164913 -3.689768,0.16269 -1.247025,0.326168 -2.398428,0.941756 -3.417094,1.725282 -0.244141,0.196232 -0.53036,0.391059 -0.774498,0.58729 -0.695315,0.467301 -1.089658,1.108197 -1.221769,2.003149 -0.02892,0.326077 -0.150177,0.444661 -0.395972,0.599959 -1.314722,0.732738 -2.538756,1.632032 -3.71745,2.614607 -1.786594,1.534556 -3.310998,3.323176 -4.658948,5.322103 -0.276353,0.440438 -0.554356,0.839942 -0.830718,1.280383 -0.195511,0.361378 -0.39104,0.722763 -0.586569,1.084148 -0.07755,0.160927 -0.153462,0.36279 -0.229373,0.564653 -0.3457,0.806044 -0.733467,1.610683 -1.035468,2.459071 -0.684836,1.775832 -0.693442,3.656055 -0.15363,5.595513 0.445862,1.691025 0.891724,3.382049 1.460438,4.995436 0.474772,1.364951 0.989962,2.690374 1.670109,3.939555 0.453441,0.832785 0.989337,1.627455 1.686919,2.264009 1.309408,1.229357 2.792994,1.565168 4.379771,1.332105 0.876683,-0.134185 1.709667,-0.310714 2.58636,-0.4449 0.543495,-0.06357 1.088631,-0.08621 1.637048,-0.02698 0.716648,0.06486 1.392899,0.169254 2.06913,0.273648 0.795859,-0.05513 1.551292,-0.07073 2.347142,-0.125859 1.590061,-0.151194 3.129854,-0.508471 4.624312,-0.949031 2.324151,-0.698961 4.649949,-1.356977 6.98067,-1.892195 1.790511,-0.38977 3.535678,-0.862821 5.188519,-1.543359 1.364988,-0.526652 2.637649,-1.260796 3.775923,-2.203842 0.407463,-0.313409 0.814928,-0.626819 1.269376,-0.816015 0.910541,-0.337453 1.819438,-0.715847 2.729978,-1.053302 0.910541,-0.337454 1.730394,-0.841469 2.372156,-1.596727 0.88099,-1.074296 1.163293,-2.413912 1.189953,-3.843844 -0.08865,-2.210524 -0.554198,-4.392779 -1.102222,-6.536915 z M 60.081865,32.961212 58.032661,36.326615 54.336718,34.24066 Z m 9.591796,15.038029 c -0.08083,0.07906 -0.20373,0.156709 -0.284568,0.235761 -0.412388,0.190609 -0.823137,0.422142 -1.235525,0.612746 -2.479261,1.020811 -5.010432,1.794603 -7.632288,2.401836 -1.331137,0.323383 -2.621859,0.607228 -3.957921,0.807807 -0.834629,0.135598 -1.591705,0.110257 -2.427972,0.204913 -0.168243,-0.0056 -0.425532,-0.136881 -0.480716,-0.465774 -0.0066,-0.163731 0.02235,-0.489819 0.399258,-0.518088 0.37689,-0.02827 0.545126,-0.02264 0.964086,-0.0495 0.03321,-1.26619 -0.05809,-2.495664 0.01883,-3.719511 0.591102,1.123559 1.224261,2.248526 1.817009,3.413021 3.294814,-0.584713 6.495657,-1.417856 9.600888,-2.540363 -0.05253,-1.309941 -0.103425,-2.578945 -0.154318,-3.847949 0,0 0.04042,-0.03953 0.04042,-0.03953 0.62988,1.043096 1.219339,2.125719 1.850861,3.209751 0.370329,-0.192011 0.533643,-0.309188 0.863555,-0.46167 0.08247,-0.03813 0.331554,-0.111543 0.46594,0.09735 0.0437,0.04234 0.131105,0.12703 0.179726,0.292181 0.08577,0.04375 0.05519,0.328893 -0.02729,0.367013 z"
   id="path36-9"
   style="stroke-width:0.41466" /><g
   id="g44"
   transform="rotate(15,1723.6627,-802.98245)"
   style="fill:#ff8012;fill-opacity:0.501961;stroke:#ff8012;stroke-opacity:1"><ellipse
     class="st11"
     cx="222.04646"
     cy="496.0527"
     rx="13.178772"
     ry="12.55908"
     id="ellipse38"
     style="fill:#ff8012;fill-opacity:0.501961;stroke:#ff8012;stroke-width:0.826255;stroke-miterlimit:10;stroke-dasharray:none;stroke-opacity:1"
     transform="rotate(-15)" /><ellipse
     class="st11"
     cx="186.88933"
     cy="505.67856"
     rx="13.178772"
     ry="12.55908"
     id="ellipse40"
     style="fill:#ff8012;fill-opacity:0.501961;stroke:#ff8012;stroke-width:0.826255;stroke-miterlimit:10;stroke-dasharray:none;stroke-opacity:1"
     transform="rotate(-15)" /><path
     class="st11"
     d="m 323.29194,434.49589 c 0,0 1.53164,-5.45728 8.77815,-5.38878"
     id="path42"
     style="fill:none;fill-opacity:0.501961;stroke:#ff8012;stroke-width:0.826255;stroke-miterlimit:10;stroke-dasharray:none;stroke-opacity:1" /></g></svg>
