<?xml version="1.0" encoding="UTF-8" standalone="no"?>
<svg
   xmlns:dc="http://purl.org/dc/elements/1.1/"
   xmlns:cc="http://creativecommons.org/ns#"
   xmlns:rdf="http://www.w3.org/1999/02/22-rdf-syntax-ns#"
   xmlns:svg="http://www.w3.org/2000/svg"
   xmlns="http://www.w3.org/2000/svg"
   xmlns:sodipodi="http://sodipodi.sourceforge.net/DTD/sodipodi-0.dtd"
   xmlns:inkscape="http://www.inkscape.org/namespaces/inkscape"
   version="1.1"
   id="Calque_1"
   x="0px"
   y="0px"
   viewBox="0 0 349.99999 70.000001"
   xml:space="preserve"
   sodipodi:docname="logo_Pugo_fficial.svg"
   width="350"
   height="70"
   inkscape:version="1.0.1 (3bc2e813f5, 2020-09-07)"><metadata
   id="metadata51"><rdf:RDF><cc:Work
       rdf:about=""><dc:format>image/svg+xml</dc:format><dc:type
         rdf:resource="http://purl.org/dc/dcmitype/StillImage" /><dc:title></dc:title></cc:Work></rdf:RDF></metadata><defs
   id="defs49" /><sodipodi:namedview
   pagecolor="#ffffff"
   bordercolor="#666666"
   borderopacity="1"
   objecttolerance="10"
   gridtolerance="10"
   guidetolerance="10"
   inkscape:pageopacity="0"
   inkscape:pageshadow="2"
   inkscape:window-width="1920"
   inkscape:window-height="1056"
   id="namedview47"
   showgrid="false"
   fit-margin-top="0"
   fit-margin-left="0"
   fit-margin-right="0"
   fit-margin-bottom="0"
   inkscape:zoom="8.6792307"
   inkscape:cx="79.537049"
   inkscape:cy="55.687493"
   inkscape:window-x="0"
   inkscape:window-y="0"
   inkscape:window-maximized="1"
   inkscape:current-layer="Calque_1" />
<style
   type="text/css"
   id="style2">
	.st0{fill:#FAFAFA;}
	.st1{fill:none;}
	.st2{enable-background:new    ;}
	.st3{fill:#FF8012;}
	.st4{font-family:'GalanoClassic-MediumItalic';}
	.st5{font-size:171.8888px;}
	.st6{letter-spacing:-5;}
	.st7{fill:#5E6363;}
	.st8{fill:#784343;}
	.st9{fill:#DB4040;}
	.st10{fill:#797474;}
	.st11{fill:none;stroke:#FFC951;stroke-width:4;stroke-miterlimit:10;}
</style>
<ellipse
   transform="matrix(0.99969694,0.02461779,0.02355153,0.99972262,0,0)"
   class="st0"
   cx="49.853111"
   cy="35.883369"
   rx="3.5120924"
   ry="3.393575"
   id="ellipse4"
   style="stroke-width:0.362462" />
<ellipse
   class="st0"
   cx="39.003201"
   cy="15.679898"
   rx="2.8112526"
   ry="4.2789025"
   id="ellipse6"
   style="stroke-width:0.364136"
   transform="matrix(0.94987586,0.31262734,-0.1734599,0.98484093,0,0)" />
<ellipse
   class="st0"
   cx="72.202766"
   cy="4.2298746"
   rx="2.8112526"
   ry="4.2789025"
   id="ellipse8"
   style="stroke-width:0.364136"
   transform="matrix(0.94987586,0.31262734,-0.1734599,0.98484093,0,0)" />
<ellipse
   transform="matrix(0.99969694,0.02461779,0.02355153,0.99972262,0,0)"
   class="st0"
   cx="50.05751"
   cy="50.05283"
   rx="11.544379"
   ry="5.3731604"
   id="ellipse10"
   style="stroke-width:0.362462" />

<text
   class="st2"
   id="text18"
   style="font-style:italic;font-variant:normal;font-weight:normal;font-stretch:normal;font-size:73.9897px;font-family:sans-serif;-inkscape-font-specification:'sans-serif, Italic';font-variant-ligatures:normal;font-variant-caps:normal;font-variant-numeric:normal;font-variant-east-asian:normal;stroke-width:0.385313;enable-background:new"
   x="103.37478"
   y="57.322372"
   transform="scale(1.0534518,0.94926033)"><tspan
     x="103.37478"
     y="57.322372"
     class="st3 st4 st5 st6"
     id="tspan14"
     style="font-style:italic;font-variant:normal;font-weight:normal;font-stretch:normal;font-size:73.9897px;font-family:sans-serif;-inkscape-font-specification:'sans-serif, Italic';font-variant-ligatures:normal;font-variant-caps:normal;font-variant-numeric:normal;font-variant-east-asian:normal;stroke-width:0.385313">foo</tspan><tspan
     x="203.44009"
     y="57.322372"
     class="st0 st4 st5 st6"
     id="tspan16"
     style="font-style:italic;font-variant:normal;font-weight:normal;font-stretch:normal;font-size:73.9897px;font-family:sans-serif;-inkscape-font-specification:'sans-serif, Italic';font-variant-ligatures:normal;font-variant-caps:normal;font-variant-numeric:normal;font-variant-east-asian:normal;stroke-width:0.385313">pgp</tspan></text>
<path
   d="M 40.847242,6.6639746 C 40.214901,7.1989095 39.63497,7.627252 39.079953,8.1050725 35.4019,11.229014 32.043478,14.829679 29.199718,19.136384 c -1.607455,2.443162 -3.012996,5.076619 -4.064554,7.991703 -0.910009,2.573243 -1.342713,5.137134 -1.774843,8.167373 -0.07901,1.212418 -0.04383,2.605264 -0.345376,3.744437 -0.16765,1.052337 -0.332218,1.68241 -0.626045,2.204918 -1.194808,1.368203 -1.354087,1.200471 -2.323254,0.592529 -0.544721,-0.344403 -1.041167,-0.894896 -1.487952,-1.413471 -0.879825,-1.115189 -1.756505,-2.946123 -2.390613,-4.310685 -1.952157,-4.192644 -2.312892,-8.573484 -2.853438,-13.333551 -0.206251,-1.884238 -0.02863,-2.845507 0.09553,-5.211925 0.36182,-1.657058 0.113807,-0.977937 0.680703,-2.420957 0.236188,-0.55601 0.750216,-1.372133 1.347925,-2.173058 0.807667,-0.949734 1.288517,-1.498505 2.309513,-2.226345 1.885001,-1.1546697 3.775002,-2.0461502 5.864657,-2.7729 3.45902,-0.9255879 6.994519,-1.3306388 10.570407,-1.392148 2.126461,-0.043182 4.232301,0.030689 6.351889,0.026525 0.102234,-0.00764 0.134029,0.00283 0.292989,0.055112 z"
   id="path20"
   style="stroke-width:0.362;stroke-miterlimit:4;stroke-dasharray:none;fill:#08000f;fill-opacity:1"
   sodipodi:nodetypes="scccccccccccccccccss" />
<path
   d="m 59.652888,6.8263853 c 0.338515,-0.012433 0.683904,-0.063875 1.022419,-0.076304 3.353356,-0.1347511 6.742809,-0.092499 10.109072,0.2723665 3.105064,0.320181 6.193819,0.923957 9.218151,2.0844612 1.734696,0.6534896 3.403234,1.491616 4.964393,2.748484 0.587685,0.482387 1.161631,1.042814 1.658253,1.660352 0.04983,0.09896 0.138333,0.16937 0.226832,0.239776 0.871218,0.782111 1.207918,1.962199 1.56966,3.154557 0.497511,1.567287 0.577563,2.985204 0.588772,4.640123 0.05335,2.370555 0.111005,4.717251 -0.287617,6.980346 -0.577285,3.277585 -1.465599,6.41152 -2.810133,9.271462 -0.380592,0.824193 -0.849673,1.577984 -1.343696,2.282285 -0.318731,0.473029 -0.542249,0.722375 -0.935741,1.046952 -1.005118,0.485479 -1.693124,0.621141 -2.722613,-0.517215 C 80.629677,40.108753 80.387378,39.57492 80.183741,39.012528 79.826293,37.986707 79.609753,36.9247 79.431873,35.834135 78.826904,31.630796 77.412604,27.821573 75.445857,24.284618 73.528946,20.846624 71.268374,17.832174 68.730296,15.056635 65.965391,12.041322 63.036389,9.384805 59.879718,7.066164 59.791228,6.9957588 59.734511,6.9358138 59.646015,6.8654042 l 0.0069,-0.039027 z"
   id="path22"
   style="stroke-width:0.362257;fill:#08000f;fill-opacity:1"
   sodipodi:nodetypes="sccccccccsccccccccccss" />
<path
   d="m 34.941206,37.331943 c -3.648954,-1.242233 -5.877772,-5.773629 -5.023868,-10.23987 0.847038,-4.427227 4.446913,-6.916406 8.018542,-5.617055 3.412678,1.247039 5.70765,5.593796 4.917327,10.080964 -0.804071,4.565208 -4.415123,6.926868 -7.912001,5.775961 z M 33.66596,28.532236 c 0.921903,0.303424 1.881585,-0.371461 2.087757,-1.542027 0.206171,-1.170568 -0.384973,-2.397144 -1.338667,-2.711028 -0.921904,-0.303425 -1.881587,0.37146 -2.087758,1.542026 -0.213039,1.209587 0.384974,2.397146 1.338668,2.711029 z"
   id="path24"
   style="stroke-width:0.362257"
   sodipodi:nodetypes="cccscsssss" />
<path
   d="m 59.373326,27.127062 c 0.700986,-3.979925 3.910789,-6.927734 7.594103,-5.880587 3.517493,1.03385 5.967115,5.266382 5.388145,9.69927 -0.6202,4.667007 -4.106669,7.276073 -7.581197,6.380205 -1.864427,-0.489785 -3.348257,-1.803764 -4.376745,-3.793497 -1.098938,-1.971637 -1.525145,-4.134665 -1.024306,-6.405391 z m 8.174235,1.328074 c 0.953698,0.313884 1.881589,-0.371459 2.080889,-1.503009 0.20617,-1.170564 -0.391846,-2.358125 -1.338671,-2.71103 -0.953691,-0.313882 -1.913376,0.361001 -2.087758,1.54203 -0.20617,1.170566 0.391848,2.358126 1.34554,2.672009 z"
   id="path26"
   style="stroke-width:0.362257"
   sodipodi:nodetypes="ccccccssccs" />




<path
   d="m 69.147978,52.594456 c 0.0042,-1.360862 -0.06193,-2.703632 -0.121241,-4.085418 -0.03267,-0.960213 -0.199382,-1.923253 -0.520736,-2.77207 C 68.0738,44.5627 67.473213,43.580698 66.827089,42.666269 66.532382,42.239028 66.230802,41.850808 65.929214,41.462584 65.652553,41.123843 65.375892,40.785099 65.09923,40.44636 65.017613,40.33693 64.922234,40.305545 64.840608,40.196117 64.255491,39.508173 63.61797,38.926824 62.973572,38.38449 61.836855,37.391157 60.595324,36.611011 59.340054,35.908909 58.97232,35.705323 58.636379,35.512189 58.254903,35.386637 57.594186,35.127896 56.9266,34.908176 56.259019,34.688459 c -0.158952,-0.05231 -0.247451,-0.122725 -0.347113,-0.320648 -0.455391,-0.851652 -1.001845,-1.568153 -1.771674,-1.780242 -0.09537,-0.03139 -0.183864,-0.101799 -0.279236,-0.133182 -0.933076,-0.430941 -1.861854,-0.695336 -2.845606,-0.647595 -1.015547,0.03721 -2.015618,0.368626 -2.947808,0.887434 -0.225103,0.132318 -0.481994,0.254175 -0.707094,0.386492 -0.622895,0.290358 -1.05075,0.81003 -1.329103,1.626599 -0.08674,0.301693 -0.202752,0.387355 -0.420984,0.480655 -1.147847,0.406548 -2.259607,0.990099 -3.35332,1.662145 -1.666773,1.061378 -3.184043,2.41964 -4.608512,4.014849 -0.298128,0.355969 -0.589379,0.672914 -0.887506,1.028886 -0.220799,0.298854 -0.441598,0.597711 -0.662399,0.896565 -0.09107,0.135151 -0.189006,0.30932 -0.286953,0.48349 -0.423555,0.686208 -0.878902,1.36196 -1.277539,2.097651 -0.8746,1.528501 -1.254313,3.302444 -1.227627,5.251423 0.0043,1.693936 0.0086,3.387873 0.12214,5.035163 0.09111,1.392259 0.220879,2.755945 0.491555,4.083455 0.180448,0.885009 0.43135,1.751918 0.836901,2.504605 0.754393,1.445436 1.81893,2.084767 3.075049,2.20922 0.695075,0.06365 1.365232,0.0778 2.060306,0.141444 0.427014,0.058 0.847154,0.154978 1.253544,0.330028 0.533562,0.216831 1.028447,0.462327 1.523337,0.707766 0.617751,0.120772 1.196833,0.270109 1.814595,0.390811 1.242378,0.202487 2.487321,0.199426 3.714225,0.107855 1.9108,-0.155432 3.814732,-0.271859 5.698047,-0.27123 1.442552,0.02068 2.867067,-0.04712 4.262363,-0.33095 1.145272,-0.200986 2.261334,-0.618003 3.316385,-1.261499 0.372878,-0.20752 0.745755,-0.415044 1.129802,-0.495042 0.761227,-0.120989 1.529328,-0.281 2.290554,-0.401988 0.761227,-0.120989 1.486365,-0.41897 2.125576,-0.992932 0.884927,-0.823327 1.366037,-2.027248 1.670148,-3.371981 0.371109,-2.107017 0.449238,-4.269186 0.456915,-6.413257 z m -15.890066,-17.861715 -2.230348,2.73352 -2.404049,-2.772706 z m 4.328952,16.285834 c -0.07733,0.0571 -0.186436,0.103764 -0.263759,0.160871 -0.352261,0.09047 -0.711393,0.219954 -1.063653,0.310417 -2.092939,0.425746 -4.176439,0.606909 -6.296026,0.611074 -1.079127,0.01635 -2.119588,0.0042 -3.178095,-0.09653 -0.663285,-0.05318 -1.235504,-0.241512 -1.891915,-0.333714 -0.127162,-0.04185 -0.297283,-0.221687 -0.274091,-0.544301 0.0275,-0.156073 0.114298,-0.457755 0.40724,-0.402617 0.292989,0.05511 0.420136,0.09702 0.744908,0.16261 0.276628,-1.188656 0.451002,-2.369685 0.752546,-3.508863 0.227711,1.189523 0.487215,2.389515 0.708056,3.61806 2.628225,0.163238 5.234106,0.07144 7.824509,-0.314412 l 0.646004,-3.667774 0.03868,-0.02855 c 0.273248,1.121955 0.50783,2.272459 0.774202,3.433429 0.320471,-0.100933 0.46825,-0.176135 0.750056,-0.248509 0.07046,-0.01809 0.274938,-0.03336 0.335939,0.193141 0.02492,0.04947 0.07475,0.148441 0.07906,0.314981 0.05671,0.05994 -0.02318,0.322619 -0.09363,0.340707 z"
   id="path36"
   style="stroke-width:0.362257;fill:#08000f;fill-opacity:1"
   sodipodi:nodetypes="scccccccccsccccccccccccccccscccccccccccsccsscccccccccccscccccccscccc" />

<ellipse
   style="fill:#ff8012;fill-opacity:0.501961;fill-rule:nonzero;stroke:#ff8012;stroke-width:0.7;stroke-miterlimit:4;stroke-dasharray:none;stroke-opacity:1"
   id="path1525"
   cx="36.296783"
   cy="29.055113"
   rx="11.693556"
   ry="11.472692"
   transform="rotate(-1.0911856)" /><ellipse
   style="fill:#ff8012;fill-opacity:0.501961;fill-rule:nonzero;stroke:#ff8012;stroke-width:0.7;stroke-miterlimit:4;stroke-dasharray:none;stroke-opacity:1"
   id="path1525-1"
   cx="64.430847"
   cy="29.055113"
   rx="11.693556"
   ry="11.472692"
   transform="rotate(-1.0911856)" /><path
   style="fill:none;stroke:#ff8012;stroke-width:0.7;stroke-linecap:round;stroke-linejoin:round;stroke-miterlimit:4;stroke-dasharray:none;stroke-opacity:1"
   d="m 48.747908,28.585995 c 2.265857,-1.466652 4.397431,-0.19626 4.397431,-0.19626"
   id="path1804"
   sodipodi:nodetypes="cc" /></svg>
