<?xml version="1.0" encoding="UTF-8" standalone="no"?>
<svg
   xmlns:dc="http://purl.org/dc/elements/1.1/"
   xmlns:cc="http://creativecommons.org/ns#"
   xmlns:rdf="http://www.w3.org/1999/02/22-rdf-syntax-ns#"
   xmlns:svg="http://www.w3.org/2000/svg"
   xmlns="http://www.w3.org/2000/svg"
   xmlns:sodipodi="http://sodipodi.sourceforge.net/DTD/sodipodi-0.dtd"
   xmlns:inkscape="http://www.inkscape.org/namespaces/inkscape"
   width="192"
   height="192"
   viewBox="0 0 50.8 50.8"
   version="1.1"
   id="svg1042"
   inkscape:export-filename="/home/jbar/image_pouravatar.png"
   inkscape:export-xdpi="96"
   inkscape:export-ydpi="96"
   sodipodi:docname="onlypug.svg"
   inkscape:version="1.0.1 (3bc2e813f5, 2020-09-07)">
  <defs
     id="defs1036" />
  <sodipodi:namedview
     id="base"
     pagecolor="#ffffff"
     bordercolor="#666666"
     borderopacity="1.0"
     inkscape:pageopacity="0"
     inkscape:pageshadow="2"
     inkscape:zoom="1.979899"
     inkscape:cx="119.82807"
     inkscape:cy="101.13539"
     inkscape:document-units="px"
     inkscape:current-layer="layer1"
     inkscape:document-rotation="0"
     showgrid="false"
     units="px"
     width="256px"
     inkscape:window-width="1678"
     inkscape:window-height="1080"
     inkscape:window-x="42"
     inkscape:window-y="29"
     inkscape:window-maximized="0"
     inkscape:pagecheckerboard="true" />
  <metadata
     id="metadata1039">
    <rdf:RDF>
      <cc:Work
         rdf:about="">
        <dc:format>image/svg+xml</dc:format>
        <dc:type
           rdf:resource="http://purl.org/dc/dcmitype/StillImage" />
        <dc:title></dc:title>
      </cc:Work>
    </rdf:RDF>
  </metadata>
  <g
     inkscape:label="Calque 1"
     inkscape:groupmode="layer"
     id="layer1">
    <rect
       style="fill:#ba9ad0;stroke:#ff8012;stroke-width:0.281798;stroke-linecap:round;stroke-linejoin:round;fill-opacity:1"
       id="rect1627"
       width="50.5182"
       height="50.518204"
       x="0.140899"
       y="0.140899" />
    <ellipse
       transform="matrix(0.97655619,-0.21526263,0.26628724,0.96389372,0,0)"
       class="st0"
       cx="18.917046"
       cy="29.650927"
       rx="1.9725485"
       ry="1.6250694"
       id="ellipse4-3"
       style="fill:#ffffff;stroke-width:0.187975"
       inkscape:export-xdpi="147.20267"
       inkscape:export-ydpi="147.20267" />
    <ellipse
       class="st0"
       cx="16.512848"
       cy="23.167198"
       rx="1.5306492"
       ry="2.0759923"
       id="ellipse6-6"
       style="fill:#ffffff;stroke-width:0.187154"
       inkscape:export-xdpi="147.20267"
       inkscape:export-ydpi="147.20267" />
    <ellipse
       class="st0"
       cx="34.589077"
       cy="17.612009"
       rx="1.5306492"
       ry="2.0759923"
       id="ellipse8-7"
       style="fill:#ffffff;stroke-width:0.187154"
       inkscape:export-xdpi="147.20267"
       inkscape:export-ydpi="147.20267" />
    <ellipse
       transform="matrix(0.97655619,-0.21526263,0.26628724,0.96389372,0,0)"
       class="st0"
       cx="19.031847"
       cy="36.436199"
       rx="6.4838395"
       ry="2.5730269"
       id="ellipse10-5"
       style="fill:#ffffff;stroke-width:0.187975"
       inkscape:export-xdpi="147.20267"
       inkscape:export-ydpi="147.20267" />
    <path
       d="m 18.734577,12.207459 c -0.243308,0.332362 -0.472573,0.608241 -0.685312,0.90382 -1.41399,1.938995 -2.631534,4.057269 -3.53881,6.435594 -0.511973,1.348439 -0.91076,2.758602 -1.116193,4.252813 -0.179219,1.324098 -0.214662,2.67314 -0.02743,4.031347 0.08225,0.574019 0.133297,1.165776 0.104217,1.735213 -0.006,0.304089 -0.04437,0.587827 -0.130497,0.869597 -0.188142,0.562887 -0.531224,0.757992 -1.044537,0.603709 -0.288772,-0.08798 -0.532316,-0.250171 -0.792387,-0.43207 C 10.98224,30.205595 10.52138,29.711089 10.090461,29.160757 8.7646585,27.470352 7.7024164,25.581567 6.9814004,23.440534 6.6996005,22.592002 6.4973278,21.746745 6.4840533,20.852205 c -0.022345,-0.68568 0.099692,-1.327372 0.4309766,-1.884368 0.060517,-0.0926 0.088607,-0.205585 0.1332141,-0.298854 0.2963758,-0.653532 0.7243336,-1.168501 1.1853472,-1.644071 0.7685608,-0.786261 1.6540431,-1.39652 2.5738258,-1.929283 1.527656,-0.888154 3.142292,-1.544475 4.80961,-2.046454 0.990845,-0.301601 1.983561,-0.546022 2.975021,-0.828576 0.0471,-0.01724 0.06302,-0.01636 0.142531,-0.0132 z"
       id="path20-3"
       style="fill:#000000;fill-opacity:1;stroke:url(#meshgradient3604);stroke-width:0.173933"
       inkscape:export-xdpi="147.20267"
       inkscape:export-ydpi="147.20267" />
    <path
       d="m 27.550797,9.7933814 c 0.157187,-0.05058 0.313754,-0.120231 0.470946,-0.170825 1.555982,-0.506564 3.146252,-0.9356464 4.757405,-1.2116736 1.484524,-0.2622341 2.989304,-0.390487 4.518677,-0.2514328 0.876024,0.074113 1.739246,0.2428017 2.593389,0.6203546 0.322451,0.146417 0.646137,0.3309398 0.939259,0.5522418 0.03305,0.03939 0.08139,0.0604 0.129729,0.08143 0.484605,0.248208 0.86408,0.6822966 1.150607,1.1886406 0.386929,0.662649 0.616663,1.375891 0.78464,2.143652 0.258048,1.09483 0.357066,2.183108 0.393073,3.287817 0.05215,1.599918 -0.05538,3.174242 -0.403337,4.681605 -0.09707,0.433489 -0.242451,0.845967 -0.404368,1.238743 -0.102665,0.262071 -0.253627,0.503127 -0.405849,0.706092 -0.366201,0.46045 -0.826831,0.460505 -1.254023,0.02445 -0.181169,-0.19767 -0.34705,-0.413732 -0.497643,-0.648186 -0.268142,-0.429505 -0.473902,-0.894485 -0.664381,-1.377853 -0.69642,-1.873726 -1.732822,-3.457109 -3.000975,-4.840802 -1.2351,-1.344291 -2.589369,-2.446212 -4.050006,-3.400348 -1.590364,-1.035556 -3.22223,-1.882616 -4.927419,-2.5424796 -0.04832,-0.02101 -0.08077,-0.04137 -0.129097,-0.06238 0,0 -6.16e-4,-0.01906 -6.16e-4,-0.01906 z"
       id="path22-5"
       style="fill:#000000;fill-opacity:1;stroke:url(#meshgradient3618);stroke-width:0.173933"
       inkscape:export-xdpi="147.20267"
       inkscape:export-ydpi="147.20267" />
    <path
       d="m 17.770171,27.588297 c -2.095533,-0.01922 -3.735512,-1.78766 -3.69907,-3.998208 0.03644,-2.191325 1.749314,-3.902099 3.808403,-3.844431 1.967976,0.05766 3.62618,1.729995 3.62618,3.940543 5e-6,2.248991 -1.731091,3.902094 -3.735513,3.902096 z m -1.530649,-3.902099 c 0.528441,0 0.983988,-0.461329 0.983991,-1.037996 -4e-6,-0.576664 -0.437331,-1.057218 -0.983993,-1.057217 -0.528436,-1e-6 -0.983988,0.46133 -0.98399,1.037996 3e-6,0.595886 0.437332,1.057217 0.983992,1.057217 z"
       id="path24-6"
       style="stroke:#ff8012;stroke-width:0.244629;stroke-miterlimit:4;stroke-dasharray:none;stroke-opacity:1"
       inkscape:export-xdpi="147.20267"
       inkscape:export-ydpi="147.20267" />
    <path
       d="m 30.033587,19.092106 c 0,-1.960659 1.45776,-3.825207 3.553292,-3.902096 2.004422,-0.05767 3.735512,1.537769 3.844846,3.690651 0.109333,2.268213 -1.530653,4.017431 -3.498628,4.132763 -1.056879,0.05767 -1.986199,-0.326777 -2.7333,-1.095663 -0.783547,-0.749664 -1.220876,-1.691551 -1.16621,-2.825655 z m 4.555502,-0.634332 c 0.54666,0 0.983987,-0.46133 0.983987,-1.018775 0,-0.576663 -0.437327,-1.037995 -0.983987,-1.057217 -0.54666,0 -1.00221,0.461333 -0.983989,1.037996 0,0.576664 0.437329,1.037996 0.983989,1.037996 z"
       id="path26-2"
       style="stroke:#ff8012;stroke-width:0.244629;stroke-miterlimit:4;stroke-dasharray:none;stroke-opacity:1"
       inkscape:export-xdpi="147.20267"
       inkscape:export-ydpi="147.20267" />
    <path
       d="m 38.224738,29.265615 c -0.153751,-0.633127 -0.34389,-1.248514 -0.53475,-1.882946 -0.127963,-0.442005 -0.329409,-0.867579 -0.602165,-1.219587 -0.370578,-0.488613 -0.811022,-0.865561 -1.268567,-1.205071 -0.209859,-0.159571 -0.418996,-0.300107 -0.628129,-0.440637 -0.189861,-0.120832 -0.379721,-0.241658 -0.569582,-0.362489 -0.0571,-0.04006 -0.11275,-0.04203 -0.169859,-0.08208 -0.398269,-0.242314 -0.812921,-0.428142 -1.226846,-0.594924 -0.734369,-0.311237 -1.5015,-0.509509 -2.267177,-0.669686 -0.224065,-0.04595 -0.429581,-0.09126 -0.6522,-0.09912 -0.390304,-0.0328 -0.779888,-0.04655 -1.169468,-0.06031 -0.09272,-0.0033 -0.149132,-0.0243 -0.226239,-0.103084 -0.346237,-0.335584 -0.72668,-0.596287 -1.17119,-0.592957 -0.05566,-0.002 -0.112022,-0.02296 -0.167688,-0.02494 -0.55872,-0.0768 -1.095986,-0.07673 -1.627464,0.07569 -0.550031,0.151762 -1.057886,0.438184 -1.507192,0.802744 -0.107684,0.09131 -0.233929,0.181954 -0.341611,0.273259 -0.306688,0.217426 -0.480624,0.515624 -0.538894,0.932031 -0.01285,0.151711 -0.06623,0.206894 -0.174652,0.279152 -0.579891,0.340931 -1.11978,0.759358 -1.639672,1.216534 -0.788025,0.714003 -1.4604,1.546219 -2.054945,2.476288 -0.121896,0.204928 -0.244514,0.390812 -0.366409,0.595742 -0.08625,0.168151 -0.172479,0.336289 -0.25872,0.504433 -0.03422,0.07488 -0.06768,0.168805 -0.101176,0.262726 -0.152488,0.375038 -0.323515,0.749423 -0.45672,1.144165 -0.302064,0.826266 -0.305861,1.701103 -0.06775,2.6035 0.196661,0.786806 0.39332,1.573613 0.644163,2.324296 0.20941,0.635087 0.436647,1.251784 0.736646,1.833009 0.200001,0.387482 0.43637,0.757228 0.744055,1.053407 0.577547,0.571998 1.231918,0.728246 1.931806,0.619805 0.386683,-0.06243 0.754092,-0.14457 1.140776,-0.207004 0.239724,-0.02958 0.480171,-0.04012 0.722063,-0.01248 0.316094,0.03017 0.614374,0.07874 0.91264,0.127319 0.351033,-0.02566 0.684238,-0.0329 1.035268,-0.05856 0.701333,-0.07035 1.380496,-0.236583 2.039663,-0.441566 1.025126,-0.325218 2.050975,-0.63138 3.079,-0.880409 0.789747,-0.181354 1.559497,-0.401458 2.288522,-0.718099 0.60206,-0.245042 1.163402,-0.586627 1.665464,-1.025412 0.179721,-0.145819 0.359444,-0.291647 0.559889,-0.379679 0.401617,-0.157003 0.80251,-0.333073 1.204126,-0.490084 0.401613,-0.157003 0.763231,-0.391521 1.046297,-0.742931 0.388583,-0.499851 0.513098,-1.123153 0.524858,-1.788477 -0.0391,-1.02852 -0.244442,-2.043887 -0.486164,-3.041518 z m -10.721724,-6.198949 -0.903851,1.565868 -1.630186,-0.970562 z m 4.230698,6.996949 c -0.03566,0.0368 -0.08985,0.07291 -0.125511,0.109704 -0.181893,0.08869 -0.363066,0.196416 -0.544958,0.2851 -1.09354,0.474967 -2.209977,0.835 -3.366409,1.117535 -0.587132,0.150461 -1.156437,0.282534 -1.745742,0.375858 -0.368132,0.0631 -0.702059,0.0513 -1.070913,0.09535 -0.07421,-0.0026 -0.187694,-0.06369 -0.212034,-0.216717 -0.0027,-0.07618 0.0099,-0.227905 0.176102,-0.241059 0.16624,-0.01319 0.240442,-0.01057 0.425235,-0.02303 0.01468,-0.589139 -0.02563,-1.161194 0.0084,-1.730629 0.260717,0.522773 0.539988,1.046202 0.801434,1.588021 1.453261,-0.272057 2.865072,-0.659704 4.23471,-1.181988 -0.02316,-0.609494 -0.0456,-1.199941 -0.06808,-1.790386 0,0 0.01783,-0.01839 0.01783,-0.01839 0.277825,0.485334 0.53782,0.989061 0.816369,1.493442 0.163339,-0.08933 0.235377,-0.143866 0.380891,-0.214806 0.03638,-0.01774 0.146234,-0.05189 0.205515,0.04531 0.01928,0.0197 0.05783,0.05911 0.07926,0.135955 0.03784,0.02036 0.02436,0.153029 -0.01201,0.170773 z"
       id="path36-9"
       style="fill:#000000;fill-opacity:1;stroke:url(#meshgradient3590);stroke-width:0.187849"
       inkscape:export-xdpi="147.20267"
       inkscape:export-ydpi="147.20267" />
  </g>
</svg>
