<?xml version="1.0" encoding="UTF-8" standalone="no"?>
<svg
   xmlns:dc="http://purl.org/dc/elements/1.1/"
   xmlns:cc="http://creativecommons.org/ns#"
   xmlns:rdf="http://www.w3.org/1999/02/22-rdf-syntax-ns#"
   xmlns:svg="http://www.w3.org/2000/svg"
   xmlns="http://www.w3.org/2000/svg"
   id="svg8087"
   version="1.1"
   xml:space="preserve"
   width="468pt"
   height="136pt"
   viewBox="0 0 585.00001 170"><metadata
     id="metadata8093"><rdf:RDF><cc:Work
         rdf:about=""><dc:format>image/svg+xml</dc:format><dc:type
           rdf:resource="http://purl.org/dc/dcmitype/StillImage" /><dc:title></dc:title></cc:Work></rdf:RDF></metadata><defs
     id="defs8091"><clipPath
       clipPathUnits="userSpaceOnUse"
       id="clipPath8151"><path
         d="m 342.93487,330.79911 125.41,0 0,-56.04 -125.41,0 0,56.04 z"
         id="path8153"
         style="clip-rule:evenodd" /></clipPath><clipPath
       clipPathUnits="userSpaceOnUse"
       id="clipPath8199"><path
         d="m 137.40438,312.58879 11.3571,0 0,-22.9557 -11.3571,0 0,22.9557 z"
         id="path8201"
         style="clip-rule:evenodd" /></clipPath><clipPath
       clipPathUnits="userSpaceOnUse"
       id="clipPath8261"><path
         d="m 342.93487,571.744 125.41,0 0,-56.04 -125.41,0 0,56.04 z"
         id="path8263"
         style="clip-rule:evenodd" /></clipPath><clipPath
       clipPathUnits="userSpaceOnUse"
       id="clipPath8299"><path
         d="m 137.40438,553.53368 11.3571,0 0,-22.9557 -11.3571,0 0,22.9557 z"
         id="path8301"
         style="clip-rule:evenodd" /></clipPath></defs><g
     id="g8095"
     transform="matrix(1.25,0,0,-1.25,0,169.99996)"><g
       id="g8900"
       transform="matrix(1.0010108,0,0,1.0010108,-3.3036033,-0.60426843)" /><path
       id="path8767"
       style="fill:#ffffff;fill-opacity:1;fill-rule:evenodd;stroke:none"
       d="m 0,135.99997 468,0 0,-136.000002 -468,0 0,136.000002 z" /><g
       id="g9684"
       transform="translate(3.9999946,3.9999898)"><g
         id="g9675"><path
           id="path8777"
           d="m 48.910297,84.585816 c -6.265146,0 -10.993411,-1.800568 -14.182201,-5.402155 -3.151392,-3.564169 -4.728134,-8.909816 -4.728134,-16.037964 0,-7.09063 1.5941,-12.416989 4.78301,-15.981188 3.18902,-3.563939 7.899807,-5.347199 14.127325,-5.347199 6.265377,0 10.991409,1.78326 14.180439,5.347199 3.189021,3.564199 4.781248,8.890558 4.781248,15.981188 0,7.128148 -1.592227,12.473795 -4.781248,16.037964 -3.18903,3.601587 -7.915062,5.402155 -14.180439,5.402155 z m 0.02583,-7.928295 c 3.676973,0 6.656952,-2.98016 6.656952,-6.656992 0,-2.51501 -1.395138,-4.70387 -3.453046,-5.836324 l 1.091732,-14.418589 -8.591405,0 1.091732,14.418589 c -2.057898,1.132454 -3.453047,3.321314 -3.453047,5.836324 0,3.676832 2.98022,6.656992 6.657082,6.656992 z"
           style="fill:#9e2a2c;fill-opacity:1;fill-rule:evenodd;stroke:none" /><path
           d="m 73.168853,72.769034 7.934752,0 0.562749,-3.489043 0.337651,0 c 2.025895,2.701198 4.970939,4.051791 8.835151,4.051791 7.840958,0 11.761434,-4.989688 11.761434,-14.969105 0,-5.364867 -1.36947,-9.473046 -4.108056,-12.324195 -2.701197,-2.813741 -6.621676,-4.220612 -11.761446,-4.220612 -0.787846,0 -1.575691,0.03744 -2.363537,0.112554 -0.750337,0.03744 -1.500665,0.0938 -2.250993,0.16882 l 0,-12.099087 -8.947705,0 0,42.768877 0,0 z M 86.899918,48.008101 c 1.238041,0 2.269752,0.149951 3.095116,0.450205 0.862881,0.300253 1.556932,0.806724 2.082162,1.519424 0.525351,0.750328 0.9004,1.725753 1.125497,2.926285 0.225107,1.23805 0.337651,2.794872 0.337651,4.670816 0,1.763271 -0.0938,3.226418 -0.281374,4.389433 -0.18758,1.200532 -0.506472,2.157208 -0.956666,2.870018 -0.412807,0.71282 -0.975435,1.219291 -1.688245,1.519424 -0.71282,0.300133 -1.59446,0.450195 -2.644921,0.450195 -1.875824,0 -3.320213,-0.581518 -4.333165,-1.744522 -1.012943,-1.162994 -1.519415,-3.095115 -1.519415,-5.796303 l 0,-10.692227 c 0.637774,-0.187579 1.369353,-0.337641 2.194716,-0.450194 0.825364,-0.07508 1.688245,-0.112554 2.588644,-0.112554 l 0,0 z"
           style="fill:#9e2a2c;fill-opacity:1;fill-rule:evenodd;stroke:none"
           id="path8779" /><path
           d="m 121.35325,41.874147 c -9.94189,0 -14.91284,5.13989 -14.91284,15.41931 0,5.252324 1.25681,9.22907 3.77042,11.930267 2.51361,2.701188 6.22775,4.051782 11.14242,4.051782 8.36619,0 12.54928,-4.595761 12.54928,-13.787333 0,-0.975435 -0.0375,-1.819557 -0.11254,-2.532367 -0.0375,-0.675302 -0.14995,-1.350594 -0.33765,-2.025895 l -18.06422,0 c 0.11254,-1.238051 0.30025,-2.269752 0.56274,-3.095116 0.30014,-0.787845 0.71281,-1.42575 1.23805,-1.913342 0.52534,-0.450204 1.18177,-0.787845 1.96962,-1.012953 0.82537,-0.187699 1.80079,-0.281374 2.92629,-0.281374 1.46314,0 3.15139,0.131433 5.06473,0.393928 1.91335,0.262495 3.69527,0.619025 5.34611,1.06922 l 0.28137,-6.471605 c -1.65083,-0.525351 -3.48903,-0.937797 -5.51492,-1.23805 -2.0259,-0.337641 -3.99552,-0.506472 -5.90886,-0.506472 l 0,0 z m -0.33765,25.042307 c -1.8008,0 -3.15139,-0.543989 -4.05179,-1.631978 -0.9004,-1.05046 -1.44427,-2.813741 -1.63197,-5.289831 l 10.69222,0 c -0.0751,2.513598 -0.50648,4.295657 -1.29432,5.346108 -0.78785,1.050471 -2.0259,1.575701 -3.71414,1.575701 z"
           style="fill:#9e2a2c;fill-opacity:1;fill-rule:evenodd;stroke:none"
           id="path8781" /><path
           d="m 139.11594,72.769034 7.48454,0 0.50647,-3.432766 0.33766,0 c 2.66367,1.425639 4.89591,2.438582 6.6967,3.038838 1.8008,0.637784 3.52656,0.956676 5.17729,0.956676 2.51349,0 4.46458,-0.731568 5.85259,-2.194716 1.42573,-1.425639 2.13843,-3.470284 2.13843,-6.133964 l 0,-22.622483 -8.94769,0 0,19.583645 c 0,1.463147 -0.28137,2.494849 -0.84412,3.095115 -0.52524,0.637794 -1.33185,0.956676 -2.41983,0.956676 -0.97542,0 -2.08217,-0.187579 -3.32021,-0.562748 -1.20053,-0.337651 -2.43858,-0.806615 -3.71414,-1.406871 l 0,-21.665817 -8.94769,0 0,30.388415 0,0 z"
           style="fill:#9e2a2c;fill-opacity:1;fill-rule:evenodd;stroke:none"
           id="path8783" /><path
           d="m 174.19086,83.742625 c 4.05179,0.562748 7.95351,0.844122 11.70517,0.844122 3.52655,0 6.5654,-0.300133 9.11653,-0.900399 2.55123,-0.562748 4.65205,-1.444378 6.30277,-2.644911 1.65085,-1.200542 2.85115,-2.757464 3.6016,-4.670816 0.78785,-1.875834 1.18176,-4.126817 1.18176,-6.752979 0,-5.13988 -1.61321,-8.910298 -4.83962,-11.311242 -3.22655,-2.401054 -8.23501,-3.601587 -15.02539,-3.601587 -0.48772,0 -0.97543,0 -1.46314,0 -0.45021,0 -0.93792,0.01872 -1.46315,0.05626 l 0,-12.380471 -9.11653,0 0,41.362006 0,0 z m 13.39342,-21.834638 c 1.72576,0 3.17015,0.131433 4.33316,0.393928 1.16301,0.262615 2.10092,0.69406 2.81374,1.294317 0.71269,0.600266 1.21918,1.388121 1.51942,2.363546 0.33765,1.012953 0.50647,2.232234 0.50647,3.657864 0,1.425629 -0.15006,2.626162 -0.45019,3.601587 -0.30014,0.975445 -0.80661,1.76329 -1.51943,2.363546 -0.71281,0.637784 -1.65073,1.087979 -2.81374,1.350594 -1.1255,0.262615 -2.55113,0.393928 -4.27689,0.393928 -0.71281,0 -1.4819,-0.03754 -2.30726,-0.112554 -0.82536,-0.03754 -1.51942,-0.09379 -2.08217,-0.16882 l 0,-14.800285 c 0.56275,-0.112544 1.23805,-0.206218 2.02589,-0.281374 0.78785,-0.03754 1.53818,-0.05626 2.251,-0.05626 l 0,0 z"
           style="fill:#9e2a2c;fill-opacity:1;fill-rule:evenodd;stroke:none"
           id="path8785" /><path
           d="m 229.0729,41.761603 c -6.71546,0 -11.68641,1.744512 -14.91283,5.233555 -3.18891,3.526561 -4.78337,8.910188 -4.78337,16.150879 0,7.278209 1.70701,12.680595 5.12101,16.207156 3.45153,3.526541 8.72261,5.289831 15.81323,5.289831 1.68826,0 3.50792,-0.112543 5.45866,-0.337651 1.95086,-0.225097 3.77042,-0.543989 5.45867,-0.956666 l 0,-7.315727 c -2.2136,0.412677 -4.14547,0.694051 -5.79632,0.844122 -1.61309,0.18758 -3.05771,0.281374 -4.33315,0.281374 -2.32615,0 -4.29565,-0.243866 -5.90886,-0.731578 -1.5757,-0.450195 -2.85126,-1.23804 -3.82669,-2.363547 -0.93792,-1.087989 -1.61321,-2.532367 -2.0259,-4.333155 -0.41268,-1.763281 -0.61902,-3.957997 -0.61902,-6.584159 0,-2.588644 0.18759,-4.78336 0.56274,-6.584159 0.37517,-1.76339 0.97544,-3.188789 1.8008,-4.276888 0.86288,-1.050341 1.98838,-1.819668 3.37649,-2.30726 1.42563,-0.450205 3.15139,-0.675302 5.17729,-0.675302 1.1255,0 2.36355,0.05626 3.71414,0.168821 l 0,14.068716 8.38495,0 0,-20.146394 c -2.36355,-0.52523 -4.6333,-0.919158 -6.80926,-1.181773 -2.17584,-0.300133 -4.12682,-0.450195 -5.85258,-0.450195 l 0,0 z"
           style="fill:#9e2a2c;fill-opacity:1;fill-rule:evenodd;stroke:none"
           id="path8787" /><path
           d="m 248.27153,83.742625 c 4.05179,0.562748 7.95351,0.844122 11.70517,0.844122 3.52655,0 6.56528,-0.300133 9.11652,-0.900399 2.55124,-0.562748 4.65194,-1.444378 6.30278,-2.644911 1.65084,-1.200542 2.85115,-2.757464 3.60159,-4.670816 0.78785,-1.875834 1.18178,-4.126817 1.18178,-6.752979 0,-5.13988 -1.6131,-8.910298 -4.83964,-11.311242 -3.22643,-2.401054 -8.235,-3.601587 -15.02538,-3.601587 -0.48772,0 -0.97544,0 -1.46315,0 -0.4502,0 -0.93792,0.01872 -1.46315,0.05626 l 0,-12.380471 -9.11652,0 0,41.362006 0,0 z m 13.39341,-21.834638 c 1.72577,0 3.17015,0.131433 4.33317,0.393928 1.163,0.262615 2.10104,0.69406 2.81374,1.294317 0.71281,0.600266 1.21917,1.388121 1.51941,2.363546 0.33765,1.012953 0.50649,2.232234 0.50649,3.657864 0,1.425629 -0.15008,2.626162 -0.45021,3.601587 -0.30013,0.975445 -0.8066,1.76329 -1.51942,2.363546 -0.71281,0.637784 -1.65084,1.087979 -2.81375,1.350594 -1.12549,0.262615 -2.55112,0.393928 -4.27687,0.393928 -0.71282,0 -1.48191,-0.03754 -2.30727,-0.112554 -0.82537,-0.03754 -1.51943,-0.09379 -2.08218,-0.16882 l 0,-14.800285 c 0.56275,-0.112544 1.23805,-0.206218 2.0259,-0.281374 0.78785,-0.03754 1.53817,-0.05626 2.25099,-0.05626 l 0,0 z"
           style="fill:#9e2a2c;fill-opacity:1;fill-rule:evenodd;stroke:none"
           id="path8789" /></g><g
         id="g8893"
         transform="matrix(1.0030721,0,0,1.0030721,-74.031085,-660.33446)"><path
           style="color:#000000;font-style:normal;font-variant:normal;font-weight:normal;font-stretch:normal;font-size:medium;line-height:normal;font-family:sans-serif;text-indent:0;text-align:start;text-decoration:none;text-decoration-line:none;text-decoration-style:solid;text-decoration-color:#000000;letter-spacing:normal;word-spacing:normal;text-transform:none;direction:ltr;block-progression:tb;writing-mode:lr-tb;baseline-shift:baseline;text-anchor:start;white-space:normal;clip-rule:nonzero;display:inline;overflow:visible;visibility:visible;opacity:1;isolation:auto;mix-blend-mode:normal;color-interpolation:sRGB;color-interpolation-filters:linearRGB;solid-color:#000000;solid-opacity:1;fill:#6d6d6d;fill-opacity:1;fill-rule:nonzero;stroke:none;stroke-width:1.65993428;stroke-linecap:butt;stroke-linejoin:miter;stroke-miterlimit:10;stroke-dasharray:none;stroke-dashoffset:0;stroke-opacity:1;color-rendering:auto;image-rendering:auto;shape-rendering:auto;text-rendering:auto;enable-background:accumulate"
           d="m 362.46017,709.56768 c -0.20772,0.0202 -0.41114,0.0206 -0.85011,-0.0321 -0.43896,-0.0527 -1.14722,-0.45247 -1.63285,-0.71432 l -0.66506,-0.38262 -0.0347,-0.0238 c -1.65731,-1.12458 -2.74869,-2.27097 -3.11467,-3.60696 -0.36607,-1.33599 0.17474,-2.7191 1.31756,-3.83021 l 0.0365,-0.033 0.0384,-0.033 c 0.81394,-0.61861 1.73695,-0.96675 2.71936,-1.05225 l 0,0 c 0.98241,-0.0855 2.02441,0.0911 3.07437,0.52338 0.0159,0.008 0.0319,0.0158 0.0478,0.0238 2.18932,1.06506 3.59346,2.38842 3.82292,4.07911 0.1397,0.83199 -0.0356,1.68322 -0.48863,2.41561 -0.45686,0.73799 -1.15912,1.37177 -2.07341,1.95079 l -0.0515,0.0311 -0.0571,0.0256 c -0.80298,0.35686 -1.4686,0.59829 -2.09169,0.65881 z"
           id="path8791" /><path
           style="color:#000000;font-style:normal;font-variant:normal;font-weight:normal;font-stretch:normal;font-size:medium;line-height:normal;font-family:sans-serif;text-indent:0;text-align:start;text-decoration:none;text-decoration-line:none;text-decoration-style:solid;text-decoration-color:#000000;letter-spacing:normal;word-spacing:normal;text-transform:none;direction:ltr;block-progression:tb;writing-mode:lr-tb;baseline-shift:baseline;text-anchor:start;white-space:normal;clip-rule:nonzero;display:inline;overflow:visible;visibility:visible;opacity:1;isolation:auto;mix-blend-mode:normal;color-interpolation:sRGB;color-interpolation-filters:linearRGB;solid-color:#000000;solid-opacity:1;fill:#6d6d6d;fill-opacity:1;fill-rule:nonzero;stroke:none;stroke-width:1.65993428;stroke-linecap:butt;stroke-linejoin:miter;stroke-miterlimit:10;stroke-dasharray:none;stroke-dashoffset:0;stroke-opacity:1;color-rendering:auto;image-rendering:auto;shape-rendering:auto;text-rendering:auto;enable-background:accumulate"
           d="m 392.48884,733.63236 c -1.56155,0 -3.05217,-0.30493 -4.44516,-0.90769 -1.63801,-0.64547 -3.47596,-2.45231 -5.96408,-5.45628 -2.48811,-3.00396 -4.41901,-6.37756 -5.79916,-10.11535 l 0,-0.008 0,-0.004 c -1.31054,-3.7035 -1.87431,-6.85178 -1.64335,-9.49595 0.009,-2.80482 0.95299,-5.08113 2.84932,-6.53498 l 0,-0.002 0,-0.006 c 0.96704,-0.71749 2.05579,-1.19113 3.23909,-1.42558 l -0.009,0 c 1.1833,-0.23423 2.46338,-0.2306 3.737,0.0155 1.27352,0.24609 2.692,0.77397 3.99972,1.392 1.30763,0.61803 1.97466,0.96833 2.45458,1.26249 0.24005,0.14708 0.43194,0.2782 0.60209,0.4264 0.10101,0.088 0.16931,0.33458 0.26535,0.50508 -0.0281,-0.0168 0.0618,0.0219 0.28184,0.0219 0.76185,0 1.25244,0.37533 2.00202,0.91501 0.74948,0.53969 1.66564,1.31547 2.77614,2.34058 1.11274,1.02712 1.92706,1.85919 2.46872,2.54006 0.27078,0.34044 0.47757,0.63814 0.62036,0.95527 0.0431,0.0964 -0.0187,0.25104 0.0131,0.36417 l 0.27444,0.2745 c 0.0909,0.0571 0.1843,0.10014 0.27453,0.19033 0.15413,0.15402 0.32756,0.42108 0.32756,0.75396 l 0,0.0457 0,0.0457 c -0.0665,0.60173 -0.47232,1.02435 -0.92778,1.33408 -0.45556,0.30973 -1.02682,0.55697 -1.74407,0.79606 l -0.12809,0.0439 -0.13539,0 c -0.58991,0 -1.10168,-0.0311 -1.56033,-0.10115 -0.45864,-0.0701 -0.75857,-0.30908 -1.0346,-0.58511 -0.24295,-0.24291 -0.47073,-0.56348 -0.70825,-0.92049 -0.4028,-0.23496 -0.80317,-0.51846 -1.30482,-0.9699 l 0.0365,0.033 c -0.54897,-0.43921 -1.38812,-1.08456 -2.50892,-1.92518 -1.08894,-0.81669 -2.23185,-1.55115 -3.42948,-2.20516 -1.08904,-0.5701 -2.2475,-0.93129 -3.49714,-1.08886 -1.13073,-0.0922 -1.93146,-0.0111 -2.55651,0.12444 -0.0478,0.16269 -0.10147,0.34837 -0.16472,0.64416 -9e-5,0 9e-5,0.003 0,0.004 -0.12096,0.60704 -0.0253,1.72457 0.46698,3.56151 0.49219,1.83693 1.11762,3.78295 1.81266,5.53568 0.69514,1.75273 1.45989,3.31215 2.29163,4.68153 0.83175,1.36938 1.73039,2.54872 2.69332,3.54128 0.96292,0.99256 1.99002,1.79834 3.07859,2.4206 0.5589,0.22317 0.97847,0.28232 1.14197,0.2562 0.17016,-0.0272 0.14729,-1.4e-4 0.22694,-0.20313 0.15825,-0.40575 0.0928,-1.86514 -0.58926,-4.02054 -0.21897,-0.60244 -0.38481,-1.08106 -0.49959,-1.42375 l -0.0206,-0.0622 -0.0131,-0.0641 c -0.0703,-0.43317 -0.0665,-0.88398 0,-1.34871 l 0.0131,-0.0567 0.0169,-0.0549 c 0.20266,-0.70974 0.74255,-1.20392 1.44752,-1.6525 l 0.015,-0.009 0.0131,-0.009 c 0.40421,-0.23578 0.74873,-0.44954 1.31578,-0.35503 0.28343,0.0472 0.6079,0.26107 0.76307,0.51973 0.0843,0.14078 0.074,0.26284 0.0989,0.39345 0.0375,0.007 0,0.006 0.097,0.006 0.94194,0 1.70397,0.64929 2.28386,1.5427 0.59132,0.83195 0.98082,1.81777 1.23164,2.89142 l 0.0113,-0.0128 c 0.0122,0.0267 0.0112,0.0628 0.0234,0.0897 0.009,0.0419 0.0356,0.0694 0.0478,0.11163 l 0.0862,0.39712 c 0.34358,1.01969 0.42322,2.18362 0.17015,3.55023 -0.1486,0.80277 -0.32194,1.42946 -0.5856,1.93797 -0.18,0.3472 -0.49304,0.63082 -0.86557,0.8162 l -0.34406,0.34404 c -0.23312,0.78289 -0.79989,1.45502 -1.6946,2.00386 -1.02794,0.6645 -2.10358,1.12688 -3.21717,1.37434 l -0.0881,0.0201 z"
           id="path8793" /><path
           style="color:#000000;font-style:normal;font-variant:normal;font-weight:normal;font-stretch:normal;font-size:medium;line-height:normal;font-family:sans-serif;text-indent:0;text-align:start;text-decoration:none;text-decoration-line:none;text-decoration-style:solid;text-decoration-color:#000000;letter-spacing:normal;word-spacing:normal;text-transform:none;direction:ltr;block-progression:tb;writing-mode:lr-tb;baseline-shift:baseline;text-anchor:start;white-space:normal;clip-rule:nonzero;display:inline;overflow:visible;visibility:visible;opacity:1;isolation:auto;mix-blend-mode:normal;color-interpolation:sRGB;color-interpolation-filters:linearRGB;solid-color:#000000;solid-opacity:1;fill:#6d6d6d;fill-opacity:1;fill-rule:nonzero;stroke:none;stroke-width:1.65993428;stroke-linecap:butt;stroke-linejoin:miter;stroke-miterlimit:10;stroke-dasharray:none;stroke-dashoffset:0;stroke-opacity:1;color-rendering:auto;image-rendering:auto;shape-rendering:auto;text-rendering:auto;enable-background:accumulate"
           d="m 421.32071,731.74744 c -1.28654,-0.30505 -2.52981,-0.77054 -3.73006,-1.39242 -1.20016,-0.62186 -2.35741,-1.4001 -3.47184,-2.33062 -1.11433,-0.93052 -2.18603,-2.01332 -3.2152,-3.24433 -1.11302,-1.40988 -2.17479,-2.87516 -2.9819,-4.13349 l -0.68436,-1.0593 c -0.44093,-0.68233 -1.17008,-2.16749 -1.74978,-3.79012 l 0,-0.002 c -0.55684,-1.50424 -0.83147,-2.50356 -0.68071,-3.43677 l -0.53257,-0.5307 -0.0459,-0.0677 c -0.20379,-0.30567 -0.21691,-0.75873 -0.10803,-1.04859 0.0468,-0.12575 0.13576,-0.19536 0.20135,-0.29281 l -0.14457,-1.66348 0.0112,0.0695 c -0.39531,-2.30584 0.68436,-4.66251 2.92259,-6.95954 0.0169,-0.0168 0.0347,-0.0318 0.0525,-0.0476 0.6584,-0.56863 1.29976,-1.01973 1.93455,-1.32867 0.63489,-0.30894 1.26322,-0.47572 1.89567,-0.47572 1.15641,0.0554 2.55736,0.42234 3.5602,0.78924 1.1639,0.43236 2.31936,1.03262 3.46265,1.79478 1.864,1.13146 3.38151,2.1858 4.57296,3.2272 1.19145,1.0414 2.4333,2.52016 3.75049,4.40985 1.72515,2.47277 2.97562,4.91333 3.7355,7.31387 0.75988,2.40054 1.02917,4.76105 0.79193,7.0737 l 0,0.003 0,0.003 0,0.002 0,0.002 c -0.17812,1.60298 -0.59245,2.89735 -1.33958,3.85766 -0.65448,0.91087 -1.65994,1.62526 -2.95361,2.21066 -0.80185,0.8393 -1.54299,1.40539 -2.43208,1.49512 -0.18767,0.0205 -0.38181,0.0239 -0.79286,9.3e-4 -0.77309,-0.10896 -1.43469,-0.28015 -2.02854,-0.44812 z m 2.41016,-6.77208 c 0.20632,-0.1189 0.29187,-0.16398 0.36776,-0.46929 0.0843,-0.33923 0.14458,-0.9068 0.17147,-2.02043 0.0272,-1.11365 -0.11665,-2.22842 -0.39474,-2.97001 l 0,-0.002 0,-0.004 c -1.25882,-3.44825 -3.05845,-6.49957 -5.40584,-9.17569 -1.89867,-2.06196 -3.52149,-3.40702 -4.7507,-4.02785 -0.61596,-0.31107 -1.12323,-0.43738 -1.50795,-0.43738 -0.38463,0 -0.65747,0.0989 -0.94062,0.33489 -0.49828,0.41518 -0.74386,0.91335 -0.77778,1.71473 -0.0347,0.80084 0.19948,1.89234 0.81985,3.31691 0.62036,1.42458 1.30294,2.82033 1.98515,4.09831 0.6823,1.27797 1.36422,2.43817 2.04371,3.48036 0.67939,1.0422 1.35645,1.96638 2.02891,2.77234 0.67246,0.80595 1.34033,1.49366 2.00155,2.06292 0.99627,0.81005 1.8908,1.28076 2.64074,1.4512 0.18843,0.0428 0.36739,0.0684 0.71144,0.0889 0.34396,0.0205 0.80073,-0.0955 1.00705,-0.21434 z"
           id="path8795" /><path
           style="color:#000000;font-style:normal;font-variant:normal;font-weight:normal;font-stretch:normal;font-size:medium;line-height:normal;font-family:sans-serif;text-indent:0;text-align:start;text-decoration:none;text-decoration-line:none;text-decoration-style:solid;text-decoration-color:#000000;letter-spacing:normal;word-spacing:normal;text-transform:none;direction:ltr;block-progression:tb;writing-mode:lr-tb;baseline-shift:baseline;text-anchor:start;white-space:normal;clip-rule:nonzero;display:inline;overflow:visible;visibility:visible;opacity:1;isolation:auto;mix-blend-mode:normal;color-interpolation:sRGB;color-interpolation-filters:linearRGB;solid-color:#000000;solid-opacity:1;fill:#6d6d6d;fill-opacity:1;fill-rule:nonzero;stroke:none;stroke-width:1.65993428;stroke-linecap:butt;stroke-linejoin:miter;stroke-miterlimit:10;stroke-dasharray:none;stroke-dashoffset:0;stroke-opacity:1;color-rendering:auto;image-rendering:auto;shape-rendering:auto;text-rendering:auto;enable-background:accumulate"
           d="m 440.84692,730.10592 c -0.70085,-0.79386 -0.99188,-1.90656 -0.99188,-3.29036 0,-1.17274 -0.25007,-2.17356 -0.73926,-3.0543 -0.0122,-0.0175 -0.0215,-0.0366 -0.0319,-0.0549 -1.72074,-3.72344 -3.0131,-6.77694 -3.88335,-9.17386 -0.87035,-2.39691 -1.33593,-4.09732 -1.33593,-5.34363 0,-0.88212 0.34658,-1.73032 0.94615,-2.4632 0.009,-0.01 0.0178,-0.0196 0.0262,-0.0293 0.57961,-0.64407 1.30829,-1.07959 2.10996,-1.29931 0.58692,-0.26076 1.22443,-0.37841 1.81537,-0.17385 0.56321,0.19497 0.98972,0.62865 1.30117,1.15839 2.76658,2.76418 4.97988,4.81112 6.61002,6.11592 l 0.0112,0.009 c 1.74267,1.34941 2.95567,2.33442 3.66917,2.98842 0.36176,0.33401 0.64444,0.59053 0.84364,0.76312 0.0995,0.0863 0.1784,0.15233 0.22871,0.19215 0.0253,0.0201 0.0534,0.0362 0.06,0.0403 l 0.0918,0.0439 0.10803,0.12628 c 0.56228,0.65607 1.61384,1.44057 3.1366,2.2564 0.009,0.002 0.015,0.007 0.0225,0.009 0.56462,0.32265 0.91383,0.47962 1.26631,0.64233 -0.0187,-0.0924 -0.0197,-0.126 -0.0422,-0.23058 -0.19039,-0.88406 -0.52573,-2.20264 -1.00106,-3.93636 -0.9661,-3.46658 -1.46401,-6.15316 -1.46401,-8.15088 0,-1.92866 0.46155,-3.67081 1.39271,-5.16063 0.009,-0.013 0.0159,-0.0231 0.0244,-0.0348 0.95964,-1.37953 1.90532,-2.29668 3.12563,-2.29668 0.88028,0.002 1.73714,0.36229 2.13375,1.09984 0.38266,0.63581 0.44984,1.4629 0.119,2.12465 l -0.0309,0.0659 -0.0459,0.0622 c -0.33384,0.44517 -0.55122,1.26045 -0.48685,2.51444 0.0646,1.25399 0.40252,2.90731 1.03582,4.91725 l 0.0112,0.0238 0,0.0256 c 0.83109,3.32421 1.25001,5.30921 1.26641,6.48009 0.30507,0.96713 0.47448,2.19335 0.53069,3.81009 0.03,0.87229 -0.0178,1.56285 -0.24342,2.15758 -0.11272,0.29737 -0.28072,0.58255 -0.54719,0.80337 -0.18186,0.0681 -0.31351,0.22936 -0.47026,0.34405 l -0.15376,0.27999 c -0.075,0.50502 -0.29158,0.98793 -0.6496,1.36153 -0.43822,0.45719 -1.02392,0.79262 -1.73301,1.07239 -0.6585,0.29751 -1.2427,0.49337 -1.79898,0.549 -0.5634,0.0563 -1.15893,-0.0465 -1.5994,-0.43188 -0.35942,-0.31455 -0.60022,-0.38613 -0.71734,-0.38613 l -0.21597,0 -1.04856,-0.58195 -0.0825,-0.0824 c -0.49368,-0.49374 -0.8473,-0.60208 -0.8473,-0.60208 -0.33787,0 -0.5142,-0.0943 -0.72652,-0.1958 -0.21232,-0.10155 -0.43588,-0.23408 -0.69354,-0.40078 -0.51524,-0.33338 -1.15978,-0.80743 -1.95817,-1.43473 -0.76616,-0.60207 -1.44471,-1.11878 -2.04409,-1.55551 -0.9186,-0.53276 -1.46972,-0.84617 -2.0899,-1.20231 l 0.27266,0.61487 0.0131,0.0275 c 0.64323,1.78332 0.94887,3.35191 0.86923,4.73607 -0.0768,1.33094 -0.56424,2.489 -1.41454,3.36174 -0.46268,0.70749 -1.08285,1.24556 -1.83187,1.47864 -0.28165,0.10761 -0.58279,0.18014 -0.79033,0.1662 -0.14438,0.002 -0.22421,-0.011 -0.48891,-0.0878 -0.26469,-0.0769 -0.64875,-0.42272 -0.84317,-0.76868 z"
           id="path8797" /><path
           style="color:#000000;font-style:normal;font-variant:normal;font-weight:normal;font-stretch:normal;font-size:medium;line-height:normal;font-family:sans-serif;text-indent:0;text-align:start;text-decoration:none;text-decoration-line:none;text-decoration-style:solid;text-decoration-color:#000000;letter-spacing:normal;word-spacing:normal;text-transform:none;direction:ltr;block-progression:tb;writing-mode:lr-tb;baseline-shift:baseline;text-anchor:start;white-space:normal;clip-rule:nonzero;display:inline;overflow:visible;visibility:visible;opacity:1;isolation:auto;mix-blend-mode:normal;color-interpolation:sRGB;color-interpolation-filters:linearRGB;solid-color:#000000;solid-opacity:1;fill:#6d6d6d;fill-opacity:1;fill-rule:nonzero;stroke:none;stroke-width:1.65993428;stroke-linecap:butt;stroke-linejoin:miter;stroke-miterlimit:10;stroke-dasharray:none;stroke-dashoffset:0;stroke-opacity:1;color-rendering:auto;image-rendering:auto;shape-rendering:auto;text-rendering:auto;enable-background:accumulate"
           d="m 494.44433,755.95667 c -0.11581,-0.0161 -0.23068,-0.0372 -0.36964,-0.0915 -2.07032,-0.37085 -3.93179,-1.25028 -5.53391,-2.61509 -1.59238,-1.35648 -3.41515,-3.38723 -5.51574,-6.11224 l -0.0215,-0.0275 -0.0215,-0.0311 c -1.49568,-2.34224 -2.62528,-4.21583 -3.40016,-5.63644 -0.38743,-0.71032 -0.68726,-1.30758 -0.90042,-1.80623 -0.21316,-0.49862 -0.35371,-0.87078 -0.3806,-1.30114 l 0,-0.0256 0,-0.0274 c 0,-0.74386 -0.17334,-1.07745 -0.43737,-1.28284 l -0.20136,-0.15555 -2.1286,-6.59253 c -0.1888,-0.68341 -0.63376,-1.52268 -0.86341,-1.75233 -0.044,-0.0442 -0.83878,-0.37836 -2.22895,-0.43188 l 0.0328,0 c -1.43871,0 -2.57816,-0.0828 -3.46415,-0.27268 -1.09223,-0.2427 -1.90832,-0.48691 -2.38459,-1.26087 -0.23845,-0.38699 -0.26703,-0.92941 -0.10981,-1.33591 0.1532,-0.39563 0.42267,-0.70043 0.74855,-0.99737 0.32578,-0.62624 0.865,-1.13409 1.59022,-1.45485 0.86388,-0.38211 1.94973,-0.60198 3.29774,-0.7192 0.49716,-0.0415 0.51365,-0.10537 0.55816,-0.22509 0,-9.3e-4 0.0731,-0.38071 0.0731,-0.93147 0,-0.54742 -0.0403,-1.2998 -0.12265,-2.23263 -0.40702,-1.78953 -0.77066,-3.58093 -1.09063,-5.37419 -0.31997,-1.79325 -0.59638,-3.58835 -0.82884,-5.3853 -0.23256,-1.79694 -0.42126,-3.59571 -0.56593,-5.39632 -0.14467,-1.80059 -0.2453,-3.60301 -0.3017,-5.40723 0,-0.008 0,-0.0171 0,-0.0256 0,-1.077 -0.23705,-2.32988 -0.45612,-2.9849 l -0.21915,-1.48583 c 0,-0.38909 0.18523,-0.69175 0.37881,-0.90951 0.18561,-0.20895 0.40768,-0.36855 0.66066,-0.52888 0.40214,-0.29839 0.80673,-0.48628 1.21693,-0.64233 0.50765,-0.40338 1.27128,-0.44832 1.84704,-0.20011 0.57577,0.24821 1.08351,0.69253 1.63342,1.30355 l 0.0365,0.0403 0.029,0.0439 c 0.72747,1.0581 1.16587,2.46818 1.4018,4.22916 0.29018,1.74659 0.51346,4.25754 0.68258,7.58357 0.16819,3.36321 0.36523,6.07814 0.58739,8.13258 0.18458,0.48774 0.34171,1.05303 0.50099,1.9346 0.15929,0.88155 0.32897,1.55653 0.46165,1.91047 l 0.0403,0.10065 0.0113,0.10981 c 0.10606,0.89971 0.22037,1.69303 0.35436,2.57202 0.13389,0.87898 0.20257,1.53109 0.21663,2.03796 0.15431,0.58468 0.32953,1.00345 0.45564,1.19683 0.0543,0.0827 0.0684,0.0967 0.0731,0.10614 l 0.18121,0 0.80513,0 0.0459,0.006 c 0.46577,0.0518 1.02654,0.0805 1.67811,0.0805 0.0215,-9.4e-4 0.0422,9.3e-4 0.0637,0.002 0.77469,0.0596 2.20319,0.22882 4.34453,0.51057 0.009,0.002 0.0159,0.003 0.0244,0.004 2.14622,0.33888 3.46425,0.5752 4.15779,0.78324 l 0.0272,0.009 0.0272,0.011 c 0.73926,0.28163 1.37818,0.82212 1.52997,1.58113 0.1413,0.70673 -0.16397,1.37627 -0.59113,2.04046 -0.19536,0.55407 -0.58167,1.03112 -1.09981,1.33409 -0.54935,0.32118 -1.21019,0.50867 -1.99471,0.62403 -1.56923,0.23078 -3.65848,0.15395 -6.34102,-0.18849 l 0.0234,0.006 c -0.7968,-0.0796 -1.14067,-0.0664 -1.50243,-0.0641 0.18767,0.40036 0.32766,0.69906 0.72465,1.56467 0.36617,0.73235 0.97932,2.1587 1.88124,4.35726 l 0,0.004 0,0.004 c 0.88262,2.20665 2.04662,4.59188 3.49348,7.15169 0.009,0.013 0.0159,0.0244 0.0244,0.0365 0.20623,0.41263 0.62393,1.17044 1.23895,2.23262 0.57062,0.98569 1.32553,1.89996 2.27833,2.74685 l 0.0328,0.0275 0.0272,0.0292 c 2.23157,2.4216 3.97546,3.30201 5.32347,3.37638 -0.009,-0.75986 -0.22815,-1.63635 -0.97726,-2.7798 l -0.0272,-0.0403 -0.0206,-0.0439 c -0.13577,-0.27131 -0.28409,-0.47436 -0.4356,-0.62587 -0.22384,-0.22374 -0.2065,-0.2725 -0.28727,-0.41724 -0.0806,-0.14475 -0.17503,-0.32709 -0.29102,-0.55815 l -0.1665,-0.33855 c -0.10597,-0.21142 -0.17381,-0.45562 -0.17381,-0.70639 l 0,-0.68259 0.4117,-0.41176 c 0.17484,-0.17477 0.22047,-0.17866 0.35867,-0.27084 0.1383,-0.0922 0.31848,-0.21018 0.54719,-0.35319 l 0.0328,-0.0202 0.0347,-0.0165 c 0.49922,-0.24961 0.88188,-0.42455 1.38344,-0.42455 0.55552,0 0.79061,0.22327 1.13644,0.47031 0.34593,0.24705 0.73683,0.5811 1.20232,1.01749 0.009,0.006 0.015,0.0136 0.0225,0.0203 0.92394,0.92394 1.65702,1.76929 2.20327,2.55836 0.58655,0.8473 0.98644,1.88489 1.22799,3.09272 l 0,0.006 0,0.002 c 0.25289,1.32752 0.0918,2.61121 -0.49781,3.73322 -0.47504,1.00525 -0.94933,1.7514 -1.58844,2.23079 -0.80832,0.60624 -1.87018,0.67161 -3.44953,0.67161 -0.75192,0.0276 -1.34971,0.0369 -1.68833,0.025 -0.33862,-0.0119 -0.52948,-0.0242 -0.70328,-0.0483 z"
           id="path8799" /></g></g></g></svg>
